<svg width="30" height="30" viewBox="0 0 30 30" fill="none" xmlns="http://www.w3.org/2000/svg">
<path fill-rule="evenodd" clip-rule="evenodd" d="M25.4365 11.2501H30V15.0001H27.7662L25.589 25.1606C25.221 26.8781 23.6783 28.1251 21.9214 28.1251H8.07861C6.32174 28.1251 4.77911 26.8781 4.41105 25.1606L2.23379 15.0001H0V11.2501H4.56427L9.64229 2.78649C10.1751 1.8966 11.326 1.60912 12.2149 2.14378C13.103 2.67663 13.3905 3.82834 12.8577 4.71643L8.9375 11.25H21.0632L17.1423 4.71523C16.6094 3.82714 16.8969 2.67543 17.785 2.14258C18.6721 1.60972 19.8239 1.8972 20.3576 2.78529L25.4365 11.2501ZM10.6641 16.6406C10.1139 16.6406 9.66797 17.0866 9.66797 17.6367V21.9727C9.66797 22.5228 10.1139 22.9687 10.6641 22.9687C11.2142 22.9687 11.6602 22.5228 11.6602 21.9727V17.6367C11.6602 17.0866 11.2142 16.6406 10.6641 16.6406ZM14.1797 17.6367C14.1797 17.0866 14.6257 16.6406 15.1758 16.6406C15.7259 16.6406 16.1719 17.0866 16.1719 17.6367V21.9727C16.1719 22.5228 15.7259 22.9687 15.1758 22.9687C14.6257 22.9687 14.1797 22.5228 14.1797 21.9727V17.6367ZM19.6875 16.6406C19.1374 16.6406 18.6914 17.0866 18.6914 17.6367V21.9727C18.6914 22.5228 19.1374 22.9687 19.6875 22.9687C20.2376 22.9687 20.6836 22.5228 20.6836 21.9727V17.6367C20.6836 17.0866 20.2376 16.6406 19.6875 16.6406Z" fill="#717171"/>
</svg>
