<svg width="41" height="63" viewBox="0 0 41 63" fill="none" xmlns="http://www.w3.org/2000/svg">
<path d="M20.5 29.5312C25.5968 29.5312 29.7285 25.3995 29.7285 20.3027C29.7285 15.206 25.5968 11.0742 20.5 11.0742C15.4032 11.0742 11.2715 15.206 11.2715 20.3027C11.2715 25.3995 15.4032 29.5312 20.5 29.5312Z" fill="#19B2E2"/>
<path d="M20.5 0C10.5199 0 0.197266 7.59371 0.197266 20.3027C0.197266 31.9123 18.3119 54.0274 19.0815 54.9538C19.4329 55.3738 19.9521 55.6172 20.5 55.6172C21.0479 55.6172 21.5671 55.3738 21.9185 54.9538C22.6881 54.0274 40.8027 31.9123 40.8027 20.3027C40.8027 9.10781 31.6949 0 20.5 0ZM20.5 33.2227C13.3767 33.2227 7.58008 27.426 7.58008 20.3027C7.58008 13.1794 13.3767 7.38281 20.5 7.38281C27.6233 7.38281 33.4199 13.1794 33.4199 20.3027C33.4199 27.426 27.6233 33.2227 20.5 33.2227Z" fill="#19B2E2"/>
<path d="M32.9384 46.4884C29.3797 51.6407 26.0526 55.7546 24.7574 57.3132C23.6939 58.5839 22.1438 59.3085 20.5 59.3085C18.8562 59.3085 17.3061 58.5839 16.2498 57.3222C14.9516 55.7597 11.6223 51.643 8.06181 46.4884C3.2839 48.1769 0.197266 50.8074 0.197266 53.7714C0.197266 58.868 9.28723 63 20.5 63C31.7128 63 40.8027 58.868 40.8027 53.7714C40.8027 50.8075 37.7162 48.1769 32.9384 46.4884Z" fill="#19B2E2"/>
</svg>
