<svg width="21" height="21" viewBox="0 0 21 21" fill="none" xmlns="http://www.w3.org/2000/svg">
<path d="M13.202 7.692V3.444C13.202 2.664 12.926 1.992 12.374 1.428C11.822 0.875999 11.15 0.599999 10.358 0.599999C9.578 0.599999 8.912 0.875999 8.36 1.428C7.808 1.992 7.532 2.664 7.532 3.444V7.692H3.284C2.492 7.692 1.82 7.968 1.268 8.52C0.716 9.072 0.44 9.744 0.44 10.536C0.44 11.316 0.716 11.982 1.268 12.534C1.82 13.086 2.492 13.362 3.284 13.362H7.532V17.628C7.532 18.408 7.808 19.074 8.36 19.626C8.912 20.178 9.578 20.454 10.358 20.454C11.15 20.454 11.822 20.178 12.374 19.626C12.926 19.074 13.202 18.408 13.202 17.628V13.362H17.45C18.23 13.362 18.902 13.086 19.466 12.534C20.018 11.982 20.294 11.316 20.294 10.536C20.294 9.744 20.018 9.072 19.466 8.52C18.902 7.968 18.23 7.692 17.45 7.692H13.202Z" fill="white"/>
</svg>
