<svg width="51" height="59" viewBox="0 0 51 59" fill="none" xmlns="http://www.w3.org/2000/svg">
<path d="M25.4996 18.2596C19.3008 18.2596 14.2579 23.3025 14.2579 29.5008C14.2579 35.6996 19.3008 40.7425 25.4996 40.7425C31.6979 40.7425 36.7408 35.6996 36.7408 29.5008C36.7408 23.3025 31.6979 18.2596 25.4996 18.2596ZM32.1737 27.3839L24.1204 35.4372C23.7823 35.7753 23.3389 35.9445 22.896 35.9445C22.4531 35.9445 22.0101 35.7757 21.6721 35.4372L18.5945 32.3596C17.9184 31.684 17.9184 30.5879 18.5945 29.9118C19.2702 29.2357 20.3663 29.2357 21.0424 29.9118L22.896 31.7655L29.7259 24.936C30.4016 24.2599 31.4976 24.2599 32.1737 24.936C32.8498 25.6117 32.8498 26.7078 32.1737 27.3839Z" fill="#19B2E2"/>
<path d="M50.5621 16.0081L50.5603 15.9622C50.5346 15.3954 50.5175 14.7959 50.5072 14.1288C50.459 10.8757 47.873 8.18476 44.6194 8.00291C37.8359 7.62434 32.5883 5.41239 28.1045 1.04205L28.0662 1.00559C26.6038 -0.335359 24.3977 -0.335359 22.9347 1.00559L22.8965 1.04205C18.4127 5.41239 13.165 7.62434 6.38153 8.00336C3.12842 8.18476 0.541955 10.8757 0.493791 14.1292C0.483888 14.7918 0.466333 15.3914 0.440676 15.9622L0.437975 16.0688C0.306086 22.986 0.142237 31.5948 3.02219 39.4087C4.60576 43.7057 7.00406 47.4409 10.15 50.5112C13.7331 54.0079 18.4262 56.7838 24.0988 58.7617C24.2833 58.8261 24.4751 58.8783 24.6704 58.9175C24.9459 58.9724 25.2232 58.9998 25.5005 58.9998C25.7778 58.9998 26.0555 58.9724 26.3305 58.9175C26.5259 58.8783 26.719 58.8256 26.9044 58.7608C32.5703 56.7793 37.2584 54.002 40.8383 50.5058C43.9829 47.4346 46.3812 43.6985 47.9662 39.4006C50.8569 31.5633 50.6935 22.9383 50.5621 16.0081ZM25.4996 44.2044C17.3918 44.2044 10.796 37.6086 10.796 29.5008C10.796 21.393 17.3918 14.7972 25.4996 14.7972C33.6069 14.7972 40.2032 21.393 40.2032 29.5008C40.2032 37.6086 33.6069 44.2044 25.4996 44.2044Z" fill="#19B2E2"/>
</svg>
