<?xml version="1.0" encoding="utf-8"?><svg viewBox="0 0 64 30" xmlns="http://www.w3.org/2000/svg" xmlns:xlink="http://www.w3.org/1999/xlink"><style>:root>svg{display:none}:root>svg:target{display:block}</style><svg viewBox="0 0 64 8" id="arrow-left"><path d="M7.111 8H64V5.818H7.111V8z"/><path d="M0 8l16.468-8v8H0z"/></svg><svg viewBox="0 0 64 8" id="arrow-right"><path d="M56.889 8H0V5.818h56.889V8z"/><path d="M64 8L47.532 0v8H64z"/></svg><svg viewBox="0 0 30 30" id="basket"><path fill-rule="evenodd" clip-rule="evenodd" d="M25.436 11.25H30V15h-2.234L25.59 25.16a3.77 3.77 0 01-3.668 2.965H8.08a3.77 3.77 0 01-3.668-2.964L2.234 15H0v-3.75h4.564l5.078-8.465a1.875 1.875 0 113.215 1.93l-3.92 6.534h12.126l-3.92-6.535a1.875 1.875 0 113.215-1.93l5.078 8.465zm-14.772 5.39a.996.996 0 00-.996.997v4.336a.996.996 0 001.992 0v-4.336a.996.996 0 00-.996-.996zm3.516.997a.996.996 0 011.992 0v4.336a.996.996 0 01-1.992 0v-4.336zm5.508-.996a.996.996 0 00-.997.996v4.336a.996.996 0 001.993 0v-4.336a.996.996 0 00-.997-.996z"/></svg><svg viewBox="0 0 27 27" id="user"><path d="M13.308 13.006c1.787 0 3.334-.64 4.598-1.905C19.17 9.837 19.81 8.29 19.81 6.503s-.641-3.334-1.905-4.598C16.64.64 15.094 0 13.308 0 11.52 0 9.974.64 8.71 1.905 7.445 3.169 6.804 4.716 6.804 6.503S7.445 9.837 8.71 11.1c1.264 1.264 2.811 1.905 4.598 1.905zm-3.48-9.982c.97-.97 2.109-1.442 3.48-1.442 1.37 0 2.509.472 3.479 1.442.97.97 1.442 2.108 1.442 3.479 0 1.37-.472 2.509-1.442 3.479-.97.97-2.108 1.442-3.48 1.442-1.37 0-2.508-.472-3.478-1.442-.97-.97-1.442-2.108-1.442-3.48 0-1.37.471-2.508 1.442-3.478zM24.686 20.762a16.06 16.06 0 00-.218-1.706 13.45 13.45 0 00-.42-1.716 8.475 8.475 0 00-.705-1.6 6.035 6.035 0 00-1.063-1.385 4.691 4.691 0 00-1.528-.96 5.279 5.279 0 00-1.95-.353c-.275 0-.542.113-1.057.449-.317.206-.687.445-1.1.71-.354.225-.833.436-1.425.627a5.655 5.655 0 01-1.743.282 5.66 5.66 0 01-1.742-.282c-.592-.19-1.07-.402-1.424-.627-.41-.262-.78-.501-1.102-.71-.514-.336-.781-.449-1.057-.449-.702 0-1.358.119-1.95.353a4.685 4.685 0 00-1.527.96 6.03 6.03 0 00-1.063 1.386 8.488 8.488 0 00-.705 1.6c-.169.527-.31 1.104-.42 1.715a15.95 15.95 0 00-.218 1.706 23.107 23.107 0 00-.054 1.595c0 1.41.448 2.55 1.331 3.392C4.42 26.578 5.573 27 6.978 27h13c1.404 0 2.558-.421 3.431-1.252.884-.84 1.332-1.982 1.332-3.392 0-.544-.018-1.08-.055-1.594zm-2.368 3.84c-.576.549-1.342.816-2.34.816h-13c-.999 0-1.764-.267-2.34-.816-.566-.538-.84-1.273-.84-2.245 0-.506.016-1.006.05-1.485.032-.47.098-.988.197-1.537.097-.542.221-1.051.369-1.512a6.91 6.91 0 01.574-1.3c.228-.403.491-.747.781-1.025.271-.26.613-.472 1.016-.632a3.642 3.642 0 011.246-.24c.056.03.154.086.314.19.325.212.7.454 1.115.718.467.298 1.069.567 1.788.8a7.24 7.24 0 002.23.358c.744 0 1.494-.12 2.228-.358.72-.233 1.322-.502 1.79-.8.424-.271.788-.506 1.114-.718.16-.104.258-.16.313-.19.455.012.874.093 1.247.24.403.16.744.373 1.016.632.29.278.553.622.781 1.024.24.422.433.86.574 1.3.148.462.272.971.37 1.513.098.55.165 1.067.197 1.537.034.478.05.977.05 1.485 0 .973-.274 1.707-.84 2.245z"/></svg></svg>