<?xml version="1.0" encoding="utf-8"?><svg viewBox="0 0 67 63" xmlns="http://www.w3.org/2000/svg" xmlns:xlink="http://www.w3.org/1999/xlink"><style>:root>svg{display:none}:root>svg:target{display:block}</style><svg viewBox="0 0 64 8" id="arrow-left"><path d="M7.111 8H64V5.818H7.111V8z"/><path d="M0 8l16.468-8v8H0z"/></svg><svg viewBox="0 0 64 8" id="arrow-right"><path d="M56.889 8H0V5.818h56.889V8z"/><path d="M64 8L47.532 0v8H64z"/></svg><svg viewBox="0 0 30 30" id="basket"><path fill-rule="evenodd" clip-rule="evenodd" d="M25.436 11.25H30V15h-2.234L25.59 25.16a3.77 3.77 0 01-3.668 2.965H8.08a3.77 3.77 0 01-3.668-2.964L2.234 15H0v-3.75h4.564l5.078-8.465a1.875 1.875 0 113.215 1.93l-3.92 6.534h12.126l-3.92-6.535a1.875 1.875 0 113.215-1.93l5.078 8.465zm-14.772 5.39a.996.996 0 00-.996.997v4.336a.996.996 0 001.992 0v-4.336a.996.996 0 00-.996-.996zm3.516.997a.996.996 0 011.992 0v4.336a.996.996 0 01-1.992 0v-4.336zm5.508-.996a.996.996 0 00-.997.996v4.336a.996.996 0 001.993 0v-4.336a.996.996 0 00-.997-.996z"/></svg><svg viewBox="0 0 41 63" id="marker"><path d="M20.5 29.531a9.228 9.228 0 100-18.457 9.229 9.229 0 000 18.457z"/><path d="M20.5 0C10.52 0 .197 7.594.197 20.303c0 11.61 18.115 33.724 18.884 34.65a1.85 1.85 0 002.838 0c.77-.926 18.884-23.04 18.884-34.65C40.803 9.108 31.695 0 20.5 0zm0 33.223c-7.123 0-12.92-5.797-12.92-12.92 0-7.124 5.797-12.92 12.92-12.92s12.92 5.796 12.92 12.92c0 7.123-5.797 12.92-12.92 12.92z"/><path d="M32.938 46.488a160.774 160.774 0 01-8.18 10.825 5.537 5.537 0 01-8.508.01 161.047 161.047 0 01-8.188-10.835C3.284 48.177.197 50.808.197 53.771.197 58.868 9.287 63 20.5 63c11.213 0 20.303-4.132 20.303-9.229 0-2.964-3.087-5.594-7.865-7.283z"/></svg><svg viewBox="0 0 21 21" id="plus"><path d="M13.202 7.692V3.444c0-.78-.276-1.452-.828-2.016A2.744 2.744 0 0010.358.6c-.78 0-1.446.276-1.998.828a2.783 2.783 0 00-.828 2.016v4.248H3.284c-.792 0-1.464.276-2.016.828a2.744 2.744 0 00-.828 2.016c0 .78.276 1.446.828 1.998a2.744 2.744 0 002.016.828h4.248v4.266c0 .78.276 1.446.828 1.998a2.723 2.723 0 001.998.828c.792 0 1.464-.276 2.016-.828a2.723 2.723 0 00.828-1.998v-4.266h4.248c.78 0 1.452-.276 2.016-.828a2.723 2.723 0 00.828-1.998c0-.792-.276-1.464-.828-2.016a2.783 2.783 0 00-2.016-.828h-4.248z"/></svg><svg viewBox="0 0 51 59" id="protection"><path d="M25.5 18.26c-6.2 0-11.242 5.042-11.242 11.24 0 6.2 5.043 11.242 11.242 11.242 6.198 0 11.24-5.042 11.24-11.241S31.699 18.26 25.5 18.26zm6.674 9.124l-8.054 8.053a1.727 1.727 0 01-2.448 0l-3.078-3.077a1.73 1.73 0 112.448-2.448l1.854 1.854 6.83-6.83a1.73 1.73 0 112.448 2.448z"/><path d="M50.562 16.008l-.002-.046a61.189 61.189 0 01-.053-1.833c-.048-3.253-2.634-5.944-5.888-6.126-6.783-.379-12.03-2.59-16.514-6.961l-.039-.036a3.776 3.776 0 00-5.131 0l-.038.036c-4.484 4.37-9.732 6.582-16.515 6.961-3.254.182-5.84 2.873-5.888 6.126-.01.663-.028 1.262-.053 1.833l-.003.107c-.132 6.917-.296 15.526 2.584 23.34 1.584 4.297 3.982 8.032 7.128 11.102 3.583 3.497 8.276 6.273 13.949 8.25A4.314 4.314 0 0025.5 59a4.237 4.237 0 001.404-.24c5.666-1.98 10.354-4.758 13.934-8.254 3.145-3.071 5.543-6.807 7.128-11.105 2.89-7.838 2.727-16.463 2.596-23.393zM25.5 44.204c-8.108 0-14.704-6.595-14.704-14.703S17.392 14.797 25.5 14.797c8.107 0 14.703 6.596 14.703 14.704S33.607 44.204 25.5 44.204z"/></svg><svg viewBox="0 0 67 41" id="truck"><path d="M62.717 19.197c-.21-.045-.408-.086-.585-.132-2.002-.52-2.916-.806-3.592-2.11l-2.559-5.182c-.822-1.588-2.946-2.88-4.734-2.88h-4.556V2.91A1.95 1.95 0 0044.742.962L13.008.994c-1.045 0-1.834.83-1.834 1.933v1.768h-8.13A3.048 3.048 0 000 7.74a3.048 3.048 0 003.045 3.045h8.129v2.918H5.85a3.048 3.048 0 00-3.044 3.044 3.048 3.048 0 003.044 3.045h5.323v2.918H8.658a3.048 3.048 0 00-3.044 3.045 3.048 3.048 0 003.044 3.044h2.516v3.053a1.95 1.95 0 001.948 1.948h3.301c.514 3.523 3.555 6.238 7.22 6.238 3.664 0 6.705-2.715 7.22-6.238h13.359c.07 0 .14-.005.211-.01.51 3.529 3.553 6.248 7.22 6.248 3.665 0 6.706-2.715 7.22-6.238h4.742A3.389 3.389 0 0067 30.415v-5.743c0-4.577-2.577-5.118-4.283-5.476zM51.654 30.09a2.656 2.656 0 012.653 2.652 2.656 2.656 0 01-2.653 2.653A2.655 2.655 0 0149 32.742a2.655 2.655 0 012.653-2.652zM46.69 18.784v-7.065h3.482c1.338 0 2.989 1.004 3.601 2.187l2.278 4.61c.048.094.098.183.15.268h-9.511zM26.296 32.742a2.656 2.656 0 01-2.653 2.652 2.655 2.655 0 01-2.653-2.652 2.655 2.655 0 012.653-2.653 2.656 2.656 0 012.653 2.653z"/></svg><svg viewBox="0 0 27 27" id="user"><path d="M13.308 13.006c1.787 0 3.334-.64 4.598-1.905C19.17 9.837 19.81 8.29 19.81 6.503s-.641-3.334-1.905-4.598C16.64.64 15.094 0 13.308 0 11.52 0 9.974.64 8.71 1.905 7.445 3.169 6.804 4.716 6.804 6.503S7.445 9.837 8.71 11.1c1.264 1.264 2.811 1.905 4.598 1.905zm-3.48-9.982c.97-.97 2.109-1.442 3.48-1.442 1.37 0 2.509.472 3.479 1.442.97.97 1.442 2.108 1.442 3.479 0 1.37-.472 2.509-1.442 3.479-.97.97-2.108 1.442-3.48 1.442-1.37 0-2.508-.472-3.478-1.442-.97-.97-1.442-2.108-1.442-3.48 0-1.37.471-2.508 1.442-3.478zM24.686 20.762a16.06 16.06 0 00-.218-1.706 13.45 13.45 0 00-.42-1.716 8.475 8.475 0 00-.705-1.6 6.035 6.035 0 00-1.063-1.385 4.691 4.691 0 00-1.528-.96 5.279 5.279 0 00-1.95-.353c-.275 0-.542.113-1.057.449-.317.206-.687.445-1.1.71-.354.225-.833.436-1.425.627a5.655 5.655 0 01-1.743.282 5.66 5.66 0 01-1.742-.282c-.592-.19-1.07-.402-1.424-.627-.41-.262-.78-.501-1.102-.71-.514-.336-.781-.449-1.057-.449-.702 0-1.358.119-1.95.353a4.685 4.685 0 00-1.527.96 6.03 6.03 0 00-1.063 1.386 8.488 8.488 0 00-.705 1.6c-.169.527-.31 1.104-.42 1.715a15.95 15.95 0 00-.218 1.706 23.107 23.107 0 00-.054 1.595c0 1.41.448 2.55 1.331 3.392C4.42 26.578 5.573 27 6.978 27h13c1.404 0 2.558-.421 3.431-1.252.884-.84 1.332-1.982 1.332-3.392 0-.544-.018-1.08-.055-1.594zm-2.368 3.84c-.576.549-1.342.816-2.34.816h-13c-.999 0-1.764-.267-2.34-.816-.566-.538-.84-1.273-.84-2.245 0-.506.016-1.006.05-1.485.032-.47.098-.988.197-1.537.097-.542.221-1.051.369-1.512a6.91 6.91 0 01.574-1.3c.228-.403.491-.747.781-1.025.271-.26.613-.472 1.016-.632a3.642 3.642 0 011.246-.24c.056.03.154.086.314.19.325.212.7.454 1.115.718.467.298 1.069.567 1.788.8a7.24 7.24 0 002.23.358c.744 0 1.494-.12 2.228-.358.72-.233 1.322-.502 1.79-.8.424-.271.788-.506 1.114-.718.16-.104.258-.16.313-.19.455.012.874.093 1.247.24.403.16.744.373 1.016.632.29.278.553.622.781 1.024.24.422.433.86.574 1.3.148.462.272.971.37 1.513.098.55.165 1.067.197 1.537.034.478.05.977.05 1.485 0 .973-.274 1.707-.84 2.245z"/></svg></svg>