<svg width="67" height="41" viewBox="0 0 67 41" fill="none" xmlns="http://www.w3.org/2000/svg">
<path d="M62.7174 19.1965C62.5071 19.1523 62.3085 19.1107 62.1319 19.0648C60.1298 18.5442 59.2161 18.2588 58.5404 16.9544L55.9812 11.7731C55.1587 10.1853 53.035 8.89344 51.247 8.89344H46.6908V2.91038C46.6908 1.83611 45.8167 0.962036 44.7421 0.962036L13.0081 0.993904C11.9625 0.993904 11.1741 1.82481 11.1741 2.92674V4.69517H3.04462C1.36587 4.69532 0 6.06104 0 7.73994C0 9.41884 1.36587 10.7846 3.04462 10.7846H11.1739V13.7027H5.85139C4.17263 13.7027 2.80677 15.0686 2.80677 16.7474C2.80677 18.4261 4.17263 19.792 5.85139 19.792H11.1739V22.7101H8.65816C6.9794 22.7101 5.61354 24.076 5.61354 25.7548C5.61354 27.4335 6.9794 28.7994 8.65816 28.7994H11.1739V31.8515C11.1739 32.9258 12.048 33.7999 13.1222 33.7999H16.4233C16.9374 37.3233 19.9784 40.0381 23.6426 40.0381C27.307 40.0381 30.3482 37.3233 30.8624 33.7999H44.2218C44.2912 33.7999 44.3623 33.7953 44.4333 33.7906C44.9435 37.3185 47.9864 40.0381 51.6537 40.0381C55.3182 40.0381 58.3594 37.3233 58.8736 33.7999H63.6151C65.4816 33.7999 67.0001 32.2815 67.0001 30.4151V24.6718C67 20.095 64.4227 19.5543 62.7174 19.1965ZM51.6537 30.0895C53.1168 30.0895 54.3071 31.2794 54.3071 32.742C54.3071 34.2046 53.1168 35.3945 51.6537 35.3945C50.1913 35.3945 49.0014 34.2046 49.0014 32.742C49.0014 31.2794 50.1913 30.0895 51.6537 30.0895ZM46.6908 18.7839V11.7192H50.1726C51.5108 11.7192 53.1616 12.7233 53.7743 13.9057L56.0516 18.5164C56.0999 18.6096 56.15 18.6986 56.202 18.7838H46.6908V18.7839ZM26.2959 32.7418C26.2959 34.2043 25.1056 35.3943 23.6426 35.3943C22.1801 35.3943 20.9904 34.2045 20.9904 32.7418C20.9904 31.2792 22.1801 30.0894 23.6426 30.0894C25.1056 30.0895 26.2959 31.2794 26.2959 32.7418Z" fill="#19B2E2"/>
</svg>
