<svg width="27" height="16" viewBox="0 0 27 16" fill="none" xmlns="http://www.w3.org/2000/svg">
<path d="M14.5427 15.4201L26.5488 3.4137C26.8268 3.13601 26.9799 2.76531 26.9799 2.37005C26.9799 1.97478 26.8268 1.60409 26.5488 1.32639L25.6649 0.442204C25.0889 -0.133143 24.1527 -0.133143 23.5776 0.442204L13.4955 10.5243L3.40224 0.431017C3.12433 0.153324 2.75385 0 2.35881 0C1.96333 0 1.59285 0.153324 1.31472 0.431017L0.430967 1.31521C0.153055 1.59312 -4.95911e-05 1.9636 -4.95911e-05 2.35886C-4.95911e-05 2.75412 0.153055 3.12482 0.430967 3.40251L12.4481 15.4201C12.7269 15.6985 13.0991 15.8513 13.4948 15.8505C13.8921 15.8513 14.2641 15.6985 14.5427 15.4201Z" fill="#19B2E2"/>
</svg>
