<svg width="370" height="202" viewBox="0 0 370 202" fill="none" xmlns="http://www.w3.org/2000/svg">
<g opacity="0.6">
<circle r="3" transform="matrix(1 0 0 -1 3 3)" fill="#868686" fill-opacity="0.9"/>
<circle r="3" transform="matrix(1 0 0 -1 3 17)" fill="#868686" fill-opacity="0.9"/>
<circle r="3" transform="matrix(1 0 0 -1 3 31)" fill="#868686" fill-opacity="0.9"/>
<circle r="3" transform="matrix(1 0 0 -1 3 45)" fill="#868686" fill-opacity="0.9"/>
<circle r="3" transform="matrix(1 0 0 -1 3 59)" fill="#868686" fill-opacity="0.9"/>
<circle r="3" transform="matrix(1 0 0 -1 3 73)" fill="#868686" fill-opacity="0.9"/>
<circle r="3" transform="matrix(1 0 0 -1 3 87)" fill="#868686" fill-opacity="0.9"/>
<circle r="3" transform="matrix(1 0 0 -1 3 101)" fill="#868686" fill-opacity="0.9"/>
<circle r="3" transform="matrix(1 0 0 -1 3 115)" fill="#868686" fill-opacity="0.9"/>
<circle r="3" transform="matrix(1 0 0 -1 3 129)" fill="#868686" fill-opacity="0.9"/>
<circle r="3" transform="matrix(1 0 0 -1 3 143)" fill="#868686" fill-opacity="0.9"/>
<circle r="3" transform="matrix(1 0 0 -1 3 157)" fill="#868686" fill-opacity="0.9"/>
<circle r="3" transform="matrix(1 0 0 -1 3 171)" fill="#868686" fill-opacity="0.9"/>
<circle r="3" transform="matrix(1 0 0 -1 3 185)" fill="#868686" fill-opacity="0.9"/>
<circle r="3" transform="matrix(1 0 0 -1 3 199)" fill="#868686" fill-opacity="0.9"/>
<circle r="3" transform="matrix(1 0 0 -1 17 3)" fill="#868686" fill-opacity="0.9"/>
<circle r="3" transform="matrix(1 0 0 -1 17 17)" fill="#868686" fill-opacity="0.9"/>
<circle r="3" transform="matrix(1 0 0 -1 17 31)" fill="#868686" fill-opacity="0.9"/>
<circle r="3" transform="matrix(1 0 0 -1 17 45)" fill="#868686" fill-opacity="0.9"/>
<circle r="3" transform="matrix(1 0 0 -1 17 59)" fill="#868686" fill-opacity="0.9"/>
<circle r="3" transform="matrix(1 0 0 -1 17 73)" fill="#868686" fill-opacity="0.9"/>
<circle r="3" transform="matrix(1 0 0 -1 17 87)" fill="#868686" fill-opacity="0.9"/>
<circle r="3" transform="matrix(1 0 0 -1 17 101)" fill="#868686" fill-opacity="0.9"/>
<circle r="3" transform="matrix(1 0 0 -1 17 115)" fill="#868686" fill-opacity="0.9"/>
<circle r="3" transform="matrix(1 0 0 -1 17 129)" fill="#868686" fill-opacity="0.9"/>
<circle r="3" transform="matrix(1 0 0 -1 17 143)" fill="#868686" fill-opacity="0.9"/>
<circle r="3" transform="matrix(1 0 0 -1 17 157)" fill="#868686" fill-opacity="0.9"/>
<circle r="3" transform="matrix(1 0 0 -1 17 171)" fill="#868686" fill-opacity="0.9"/>
<circle r="3" transform="matrix(1 0 0 -1 17 185)" fill="#868686" fill-opacity="0.9"/>
<circle r="3" transform="matrix(1 0 0 -1 17 199)" fill="#868686" fill-opacity="0.9"/>
<circle r="3" transform="matrix(1 0 0 -1 31 3)" fill="#868686" fill-opacity="0.9"/>
<circle r="3" transform="matrix(1 0 0 -1 31 17)" fill="#868686" fill-opacity="0.9"/>
<circle r="3" transform="matrix(1 0 0 -1 31 31)" fill="#868686" fill-opacity="0.9"/>
<circle r="3" transform="matrix(1 0 0 -1 31 45)" fill="#868686" fill-opacity="0.9"/>
<circle r="3" transform="matrix(1 0 0 -1 31 59)" fill="#868686" fill-opacity="0.9"/>
<circle r="3" transform="matrix(1 0 0 -1 31 73)" fill="#868686" fill-opacity="0.9"/>
<circle r="3" transform="matrix(1 0 0 -1 31 87)" fill="#868686" fill-opacity="0.9"/>
<circle r="3" transform="matrix(1 0 0 -1 31 101)" fill="#868686" fill-opacity="0.9"/>
<circle r="3" transform="matrix(1 0 0 -1 31 115)" fill="#868686" fill-opacity="0.9"/>
<circle r="3" transform="matrix(1 0 0 -1 31 129)" fill="#868686" fill-opacity="0.9"/>
<circle r="3" transform="matrix(1 0 0 -1 31 143)" fill="#868686" fill-opacity="0.9"/>
<circle r="3" transform="matrix(1 0 0 -1 31 157)" fill="#868686" fill-opacity="0.9"/>
<circle r="3" transform="matrix(1 0 0 -1 31 171)" fill="#868686" fill-opacity="0.9"/>
<circle r="3" transform="matrix(1 0 0 -1 31 185)" fill="#868686" fill-opacity="0.9"/>
<circle r="3" transform="matrix(1 0 0 -1 31 199)" fill="#868686" fill-opacity="0.9"/>
<circle r="3" transform="matrix(1 0 0 -1 45 3)" fill="#868686" fill-opacity="0.9"/>
<circle r="3" transform="matrix(1 0 0 -1 45 17)" fill="#868686" fill-opacity="0.9"/>
<circle r="3" transform="matrix(1 0 0 -1 45 31)" fill="#868686" fill-opacity="0.9"/>
<circle r="3" transform="matrix(1 0 0 -1 45 45)" fill="#868686" fill-opacity="0.9"/>
<circle r="3" transform="matrix(1 0 0 -1 45 59)" fill="#868686" fill-opacity="0.9"/>
<circle r="3" transform="matrix(1 0 0 -1 45 73)" fill="#868686" fill-opacity="0.9"/>
<circle r="3" transform="matrix(1 0 0 -1 45 87)" fill="#868686" fill-opacity="0.9"/>
<circle r="3" transform="matrix(1 0 0 -1 45 101)" fill="#868686" fill-opacity="0.9"/>
<circle r="3" transform="matrix(1 0 0 -1 45 115)" fill="#868686" fill-opacity="0.9"/>
<circle r="3" transform="matrix(1 0 0 -1 45 129)" fill="#868686" fill-opacity="0.9"/>
<circle r="3" transform="matrix(1 0 0 -1 45 143)" fill="#868686" fill-opacity="0.9"/>
<circle r="3" transform="matrix(1 0 0 -1 45 157)" fill="#868686" fill-opacity="0.9"/>
<circle r="3" transform="matrix(1 0 0 -1 45 171)" fill="#868686" fill-opacity="0.9"/>
<circle r="3" transform="matrix(1 0 0 -1 45 185)" fill="#868686" fill-opacity="0.9"/>
<circle r="3" transform="matrix(1 0 0 -1 45 199)" fill="#868686" fill-opacity="0.9"/>
<circle r="3" transform="matrix(1 0 0 -1 59 3)" fill="#868686" fill-opacity="0.9"/>
<circle r="3" transform="matrix(1 0 0 -1 59 17)" fill="#868686" fill-opacity="0.9"/>
<circle r="3" transform="matrix(1 0 0 -1 59 31)" fill="#868686" fill-opacity="0.9"/>
<circle r="3" transform="matrix(1 0 0 -1 59 45)" fill="#868686" fill-opacity="0.9"/>
<circle r="3" transform="matrix(1 0 0 -1 59 59)" fill="#868686" fill-opacity="0.9"/>
<circle r="3" transform="matrix(1 0 0 -1 59 73)" fill="#868686" fill-opacity="0.9"/>
<circle r="3" transform="matrix(1 0 0 -1 59 87)" fill="#868686" fill-opacity="0.9"/>
<circle r="3" transform="matrix(1 0 0 -1 59 101)" fill="#868686" fill-opacity="0.9"/>
<circle r="3" transform="matrix(1 0 0 -1 59 115)" fill="#868686" fill-opacity="0.9"/>
<circle r="3" transform="matrix(1 0 0 -1 59 129)" fill="#868686" fill-opacity="0.9"/>
<circle r="3" transform="matrix(1 0 0 -1 59 143)" fill="#868686" fill-opacity="0.9"/>
<circle r="3" transform="matrix(1 0 0 -1 59 157)" fill="#868686" fill-opacity="0.9"/>
<circle r="3" transform="matrix(1 0 0 -1 59 171)" fill="#868686" fill-opacity="0.9"/>
<circle r="3" transform="matrix(1 0 0 -1 59 185)" fill="#868686" fill-opacity="0.9"/>
<circle r="3" transform="matrix(1 0 0 -1 59 199)" fill="#868686" fill-opacity="0.9"/>
<circle r="3" transform="matrix(1 0 0 -1 73 3)" fill="#868686" fill-opacity="0.9"/>
<circle r="3" transform="matrix(1 0 0 -1 73 17)" fill="#868686" fill-opacity="0.9"/>
<circle r="3" transform="matrix(1 0 0 -1 73 31)" fill="#868686" fill-opacity="0.9"/>
<circle r="3" transform="matrix(1 0 0 -1 73 45)" fill="#868686" fill-opacity="0.9"/>
<circle r="3" transform="matrix(1 0 0 -1 73 59)" fill="#868686" fill-opacity="0.9"/>
<circle r="3" transform="matrix(1 0 0 -1 73 73)" fill="#868686" fill-opacity="0.9"/>
<circle r="3" transform="matrix(1 0 0 -1 73 87)" fill="#868686" fill-opacity="0.9"/>
<circle r="3" transform="matrix(1 0 0 -1 73 101)" fill="#868686" fill-opacity="0.9"/>
<circle r="3" transform="matrix(1 0 0 -1 73 115)" fill="#868686" fill-opacity="0.9"/>
<circle r="3" transform="matrix(1 0 0 -1 73 129)" fill="#868686" fill-opacity="0.9"/>
<circle r="3" transform="matrix(1 0 0 -1 73 143)" fill="#868686" fill-opacity="0.9"/>
<circle r="3" transform="matrix(1 0 0 -1 73 157)" fill="#868686" fill-opacity="0.9"/>
<circle r="3" transform="matrix(1 0 0 -1 73 171)" fill="#868686" fill-opacity="0.9"/>
<circle r="3" transform="matrix(1 0 0 -1 73 185)" fill="#868686" fill-opacity="0.9"/>
<circle r="3" transform="matrix(1 0 0 -1 73 199)" fill="#868686" fill-opacity="0.9"/>
<circle r="3" transform="matrix(1 0 0 -1 87 3)" fill="#868686" fill-opacity="0.9"/>
<circle r="3" transform="matrix(1 0 0 -1 87 17)" fill="#868686" fill-opacity="0.9"/>
<circle r="3" transform="matrix(1 0 0 -1 87 31)" fill="#868686" fill-opacity="0.9"/>
<circle r="3" transform="matrix(1 0 0 -1 87 45)" fill="#868686" fill-opacity="0.9"/>
<circle r="3" transform="matrix(1 0 0 -1 87 59)" fill="#868686" fill-opacity="0.9"/>
<circle r="3" transform="matrix(1 0 0 -1 87 73)" fill="#868686" fill-opacity="0.9"/>
<circle r="3" transform="matrix(1 0 0 -1 87 87)" fill="#868686" fill-opacity="0.9"/>
<circle r="3" transform="matrix(1 0 0 -1 87 101)" fill="#868686" fill-opacity="0.9"/>
<circle r="3" transform="matrix(1 0 0 -1 87 115)" fill="#868686" fill-opacity="0.9"/>
<circle r="3" transform="matrix(1 0 0 -1 87 129)" fill="#868686" fill-opacity="0.9"/>
<circle r="3" transform="matrix(1 0 0 -1 87 143)" fill="#868686" fill-opacity="0.9"/>
<circle r="3" transform="matrix(1 0 0 -1 87 157)" fill="#868686" fill-opacity="0.9"/>
<circle r="3" transform="matrix(1 0 0 -1 87 171)" fill="#868686" fill-opacity="0.9"/>
<circle r="3" transform="matrix(1 0 0 -1 87 185)" fill="#868686" fill-opacity="0.9"/>
<circle r="3" transform="matrix(1 0 0 -1 87 199)" fill="#868686" fill-opacity="0.9"/>
<circle r="3" transform="matrix(1 0 0 -1 101 3)" fill="#868686" fill-opacity="0.9"/>
<circle r="3" transform="matrix(1 0 0 -1 101 17)" fill="#868686" fill-opacity="0.9"/>
<circle r="3" transform="matrix(1 0 0 -1 101 31)" fill="#868686" fill-opacity="0.9"/>
<circle r="3" transform="matrix(1 0 0 -1 101 45)" fill="#868686" fill-opacity="0.9"/>
<circle r="3" transform="matrix(1 0 0 -1 101 59)" fill="#868686" fill-opacity="0.9"/>
<circle r="3" transform="matrix(1 0 0 -1 101 73)" fill="#868686" fill-opacity="0.9"/>
<circle r="3" transform="matrix(1 0 0 -1 101 87)" fill="#868686" fill-opacity="0.9"/>
<circle r="3" transform="matrix(1 0 0 -1 101 101)" fill="#868686" fill-opacity="0.9"/>
<circle r="3" transform="matrix(1 0 0 -1 101 115)" fill="#868686" fill-opacity="0.9"/>
<circle r="3" transform="matrix(1 0 0 -1 101 129)" fill="#868686" fill-opacity="0.9"/>
<circle r="3" transform="matrix(1 0 0 -1 101 143)" fill="#868686" fill-opacity="0.9"/>
<circle r="3" transform="matrix(1 0 0 -1 101 157)" fill="#868686" fill-opacity="0.9"/>
<circle r="3" transform="matrix(1 0 0 -1 101 171)" fill="#868686" fill-opacity="0.9"/>
<circle r="3" transform="matrix(1 0 0 -1 101 185)" fill="#868686" fill-opacity="0.9"/>
<circle r="3" transform="matrix(1 0 0 -1 101 199)" fill="#868686" fill-opacity="0.9"/>
<circle r="3" transform="matrix(1 0 0 -1 115 3)" fill="#868686" fill-opacity="0.9"/>
<circle r="3" transform="matrix(1 0 0 -1 115 17)" fill="#868686" fill-opacity="0.9"/>
<circle r="3" transform="matrix(1 0 0 -1 115 31)" fill="#868686" fill-opacity="0.9"/>
<circle r="3" transform="matrix(1 0 0 -1 115 45)" fill="#868686" fill-opacity="0.9"/>
<circle r="3" transform="matrix(1 0 0 -1 115 59)" fill="#868686" fill-opacity="0.9"/>
<circle r="3" transform="matrix(1 0 0 -1 115 73)" fill="#868686" fill-opacity="0.9"/>
<circle r="3" transform="matrix(1 0 0 -1 115 87)" fill="#868686" fill-opacity="0.9"/>
<circle r="3" transform="matrix(1 0 0 -1 115 101)" fill="#868686" fill-opacity="0.9"/>
<circle r="3" transform="matrix(1 0 0 -1 115 115)" fill="#868686" fill-opacity="0.9"/>
<circle r="3" transform="matrix(1 0 0 -1 115 129)" fill="#868686" fill-opacity="0.9"/>
<circle r="3" transform="matrix(1 0 0 -1 115 143)" fill="#868686" fill-opacity="0.9"/>
<circle r="3" transform="matrix(1 0 0 -1 115 157)" fill="#868686" fill-opacity="0.9"/>
<circle r="3" transform="matrix(1 0 0 -1 115 171)" fill="#868686" fill-opacity="0.9"/>
<circle r="3" transform="matrix(1 0 0 -1 115 185)" fill="#868686" fill-opacity="0.9"/>
<circle r="3" transform="matrix(1 0 0 -1 115 199)" fill="#868686" fill-opacity="0.9"/>
<circle r="3" transform="matrix(1 0 0 -1 129 3)" fill="#868686" fill-opacity="0.9"/>
<circle r="3" transform="matrix(1 0 0 -1 129 17)" fill="#868686" fill-opacity="0.9"/>
<circle r="3" transform="matrix(1 0 0 -1 129 31)" fill="#868686" fill-opacity="0.9"/>
<circle r="3" transform="matrix(1 0 0 -1 129 45)" fill="#868686" fill-opacity="0.9"/>
<circle r="3" transform="matrix(1 0 0 -1 129 59)" fill="#868686" fill-opacity="0.9"/>
<circle r="3" transform="matrix(1 0 0 -1 129 73)" fill="#868686" fill-opacity="0.9"/>
<circle r="3" transform="matrix(1 0 0 -1 129 87)" fill="#868686" fill-opacity="0.9"/>
<circle r="3" transform="matrix(1 0 0 -1 129 101)" fill="#868686" fill-opacity="0.9"/>
<circle r="3" transform="matrix(1 0 0 -1 129 115)" fill="#868686" fill-opacity="0.9"/>
<circle r="3" transform="matrix(1 0 0 -1 129 129)" fill="#868686" fill-opacity="0.9"/>
<circle r="3" transform="matrix(1 0 0 -1 129 143)" fill="#868686" fill-opacity="0.9"/>
<circle r="3" transform="matrix(1 0 0 -1 129 157)" fill="#868686" fill-opacity="0.9"/>
<circle r="3" transform="matrix(1 0 0 -1 129 171)" fill="#868686" fill-opacity="0.9"/>
<circle r="3" transform="matrix(1 0 0 -1 129 185)" fill="#868686" fill-opacity="0.9"/>
<circle r="3" transform="matrix(1 0 0 -1 129 199)" fill="#868686" fill-opacity="0.9"/>
<circle r="3" transform="matrix(1 0 0 -1 143 3)" fill="#868686" fill-opacity="0.9"/>
<circle r="3" transform="matrix(1 0 0 -1 143 17)" fill="#868686" fill-opacity="0.9"/>
<circle r="3" transform="matrix(1 0 0 -1 143 31)" fill="#868686" fill-opacity="0.9"/>
<circle r="3" transform="matrix(1 0 0 -1 143 45)" fill="#868686" fill-opacity="0.9"/>
<circle r="3" transform="matrix(1 0 0 -1 143 59)" fill="#868686" fill-opacity="0.9"/>
<circle r="3" transform="matrix(1 0 0 -1 143 73)" fill="#868686" fill-opacity="0.9"/>
<circle r="3" transform="matrix(1 0 0 -1 143 87)" fill="#868686" fill-opacity="0.9"/>
<circle r="3" transform="matrix(1 0 0 -1 143 101)" fill="#868686" fill-opacity="0.9"/>
<circle r="3" transform="matrix(1 0 0 -1 143 115)" fill="#868686" fill-opacity="0.9"/>
<circle r="3" transform="matrix(1 0 0 -1 143 129)" fill="#868686" fill-opacity="0.9"/>
<circle r="3" transform="matrix(1 0 0 -1 143 143)" fill="#868686" fill-opacity="0.9"/>
<circle r="3" transform="matrix(1 0 0 -1 143 157)" fill="#868686" fill-opacity="0.9"/>
<circle r="3" transform="matrix(1 0 0 -1 143 171)" fill="#868686" fill-opacity="0.9"/>
<circle r="3" transform="matrix(1 0 0 -1 143 185)" fill="#868686" fill-opacity="0.9"/>
<circle r="3" transform="matrix(1 0 0 -1 143 199)" fill="#868686" fill-opacity="0.9"/>
<circle r="3" transform="matrix(1 0 0 -1 157 3)" fill="#868686" fill-opacity="0.9"/>
<circle r="3" transform="matrix(1 0 0 -1 157 17)" fill="#868686" fill-opacity="0.9"/>
<circle r="3" transform="matrix(1 0 0 -1 157 31)" fill="#868686" fill-opacity="0.9"/>
<circle r="3" transform="matrix(1 0 0 -1 157 45)" fill="#868686" fill-opacity="0.9"/>
<circle r="3" transform="matrix(1 0 0 -1 157 59)" fill="#868686" fill-opacity="0.9"/>
<circle r="3" transform="matrix(1 0 0 -1 157 73)" fill="#868686" fill-opacity="0.9"/>
<circle r="3" transform="matrix(1 0 0 -1 157 87)" fill="#868686" fill-opacity="0.9"/>
<circle r="3" transform="matrix(1 0 0 -1 157 101)" fill="#868686" fill-opacity="0.9"/>
<circle r="3" transform="matrix(1 0 0 -1 157 115)" fill="#868686" fill-opacity="0.9"/>
<circle r="3" transform="matrix(1 0 0 -1 157 129)" fill="#868686" fill-opacity="0.9"/>
<circle r="3" transform="matrix(1 0 0 -1 157 143)" fill="#868686" fill-opacity="0.9"/>
<circle r="3" transform="matrix(1 0 0 -1 157 157)" fill="#868686" fill-opacity="0.9"/>
<circle r="3" transform="matrix(1 0 0 -1 157 171)" fill="#868686" fill-opacity="0.9"/>
<circle r="3" transform="matrix(1 0 0 -1 157 185)" fill="#868686" fill-opacity="0.9"/>
<circle r="3" transform="matrix(1 0 0 -1 157 199)" fill="#868686" fill-opacity="0.9"/>
<circle r="3" transform="matrix(1 0 0 -1 171 3)" fill="#868686" fill-opacity="0.9"/>
<circle r="3" transform="matrix(1 0 0 -1 171 17)" fill="#868686" fill-opacity="0.9"/>
<circle r="3" transform="matrix(1 0 0 -1 171 31)" fill="#868686" fill-opacity="0.9"/>
<circle r="3" transform="matrix(1 0 0 -1 171 45)" fill="#868686" fill-opacity="0.9"/>
<circle r="3" transform="matrix(1 0 0 -1 171 59)" fill="#868686" fill-opacity="0.9"/>
<circle r="3" transform="matrix(1 0 0 -1 171 73)" fill="#868686" fill-opacity="0.9"/>
<circle r="3" transform="matrix(1 0 0 -1 171 87)" fill="#868686" fill-opacity="0.9"/>
<circle r="3" transform="matrix(1 0 0 -1 171 101)" fill="#868686" fill-opacity="0.9"/>
<circle r="3" transform="matrix(1 0 0 -1 171 115)" fill="#868686" fill-opacity="0.9"/>
<circle r="3" transform="matrix(1 0 0 -1 171 129)" fill="#868686" fill-opacity="0.9"/>
<circle r="3" transform="matrix(1 0 0 -1 171 143)" fill="#868686" fill-opacity="0.9"/>
<circle r="3" transform="matrix(1 0 0 -1 171 157)" fill="#868686" fill-opacity="0.9"/>
<circle r="3" transform="matrix(1 0 0 -1 171 171)" fill="#868686" fill-opacity="0.9"/>
<circle r="3" transform="matrix(1 0 0 -1 171 185)" fill="#868686" fill-opacity="0.9"/>
<circle r="3" transform="matrix(1 0 0 -1 171 199)" fill="#868686" fill-opacity="0.9"/>
<circle r="3" transform="matrix(1 0 0 -1 185 3)" fill="#868686" fill-opacity="0.9"/>
<circle r="3" transform="matrix(1 0 0 -1 185 17)" fill="#868686" fill-opacity="0.9"/>
<circle r="3" transform="matrix(1 0 0 -1 185 31)" fill="#868686" fill-opacity="0.9"/>
<circle r="3" transform="matrix(1 0 0 -1 185 45)" fill="#868686" fill-opacity="0.9"/>
<circle r="3" transform="matrix(1 0 0 -1 185 59)" fill="#868686" fill-opacity="0.9"/>
<circle r="3" transform="matrix(1 0 0 -1 185 73)" fill="#868686" fill-opacity="0.9"/>
<circle r="3" transform="matrix(1 0 0 -1 185 87)" fill="#868686" fill-opacity="0.9"/>
<circle r="3" transform="matrix(1 0 0 -1 185 101)" fill="#868686" fill-opacity="0.9"/>
<circle r="3" transform="matrix(1 0 0 -1 185 115)" fill="#868686" fill-opacity="0.9"/>
<circle r="3" transform="matrix(1 0 0 -1 185 129)" fill="#868686" fill-opacity="0.9"/>
<circle r="3" transform="matrix(1 0 0 -1 185 143)" fill="#868686" fill-opacity="0.9"/>
<circle r="3" transform="matrix(1 0 0 -1 185 157)" fill="#868686" fill-opacity="0.9"/>
<circle r="3" transform="matrix(1 0 0 -1 185 171)" fill="#868686" fill-opacity="0.9"/>
<circle r="3" transform="matrix(1 0 0 -1 185 185)" fill="#868686" fill-opacity="0.9"/>
<circle r="3" transform="matrix(1 0 0 -1 185 199)" fill="#868686" fill-opacity="0.9"/>
<circle r="3" transform="matrix(1 0 0 -1 199 3)" fill="#868686" fill-opacity="0.9"/>
<circle r="3" transform="matrix(1 0 0 -1 199 17)" fill="#868686" fill-opacity="0.9"/>
<circle r="3" transform="matrix(1 0 0 -1 199 31)" fill="#868686" fill-opacity="0.9"/>
<circle r="3" transform="matrix(1 0 0 -1 199 45)" fill="#868686" fill-opacity="0.9"/>
<circle r="3" transform="matrix(1 0 0 -1 199 59)" fill="#868686" fill-opacity="0.9"/>
<circle r="3" transform="matrix(1 0 0 -1 199 73)" fill="#868686" fill-opacity="0.9"/>
<circle r="3" transform="matrix(1 0 0 -1 199 87)" fill="#868686" fill-opacity="0.9"/>
<circle r="3" transform="matrix(1 0 0 -1 199 101)" fill="#868686" fill-opacity="0.9"/>
<circle r="3" transform="matrix(1 0 0 -1 199 115)" fill="#868686" fill-opacity="0.9"/>
<circle r="3" transform="matrix(1 0 0 -1 199 129)" fill="#868686" fill-opacity="0.9"/>
<circle r="3" transform="matrix(1 0 0 -1 199 143)" fill="#868686" fill-opacity="0.9"/>
<circle r="3" transform="matrix(1 0 0 -1 199 157)" fill="#868686" fill-opacity="0.9"/>
<circle r="3" transform="matrix(1 0 0 -1 199 171)" fill="#868686" fill-opacity="0.9"/>
<circle r="3" transform="matrix(1 0 0 -1 199 185)" fill="#868686" fill-opacity="0.9"/>
<circle r="3" transform="matrix(1 0 0 -1 199 199)" fill="#868686" fill-opacity="0.9"/>
<circle r="3" transform="matrix(1 0 0 -1 213 3)" fill="#868686" fill-opacity="0.9"/>
<circle r="3" transform="matrix(1 0 0 -1 213 17)" fill="#868686" fill-opacity="0.9"/>
<circle r="3" transform="matrix(1 0 0 -1 213 31)" fill="#868686" fill-opacity="0.9"/>
<circle r="3" transform="matrix(1 0 0 -1 213 45)" fill="#868686" fill-opacity="0.9"/>
<circle r="3" transform="matrix(1 0 0 -1 213 59)" fill="#868686" fill-opacity="0.9"/>
<circle r="3" transform="matrix(1 0 0 -1 213 73)" fill="#868686" fill-opacity="0.9"/>
<circle r="3" transform="matrix(1 0 0 -1 213 87)" fill="#868686" fill-opacity="0.9"/>
<circle r="3" transform="matrix(1 0 0 -1 213 101)" fill="#868686" fill-opacity="0.9"/>
<circle r="3" transform="matrix(1 0 0 -1 213 115)" fill="#868686" fill-opacity="0.9"/>
<circle r="3" transform="matrix(1 0 0 -1 213 129)" fill="#868686" fill-opacity="0.9"/>
<circle r="3" transform="matrix(1 0 0 -1 213 143)" fill="#868686" fill-opacity="0.9"/>
<circle r="3" transform="matrix(1 0 0 -1 213 157)" fill="#868686" fill-opacity="0.9"/>
<circle r="3" transform="matrix(1 0 0 -1 213 171)" fill="#868686" fill-opacity="0.9"/>
<circle r="3" transform="matrix(1 0 0 -1 213 185)" fill="#868686" fill-opacity="0.9"/>
<circle r="3" transform="matrix(1 0 0 -1 213 199)" fill="#868686" fill-opacity="0.9"/>
<circle r="3" transform="matrix(1 0 0 -1 227 3)" fill="#868686" fill-opacity="0.9"/>
<circle r="3" transform="matrix(1 0 0 -1 227 17)" fill="#868686" fill-opacity="0.9"/>
<circle r="3" transform="matrix(1 0 0 -1 227 31)" fill="#868686" fill-opacity="0.9"/>
<circle r="3" transform="matrix(1 0 0 -1 227 45)" fill="#868686" fill-opacity="0.9"/>
<circle r="3" transform="matrix(1 0 0 -1 227 59)" fill="#868686" fill-opacity="0.9"/>
<circle r="3" transform="matrix(1 0 0 -1 227 73)" fill="#868686" fill-opacity="0.9"/>
<circle r="3" transform="matrix(1 0 0 -1 227 87)" fill="#868686" fill-opacity="0.9"/>
<circle r="3" transform="matrix(1 0 0 -1 227 101)" fill="#868686" fill-opacity="0.9"/>
<circle r="3" transform="matrix(1 0 0 -1 227 115)" fill="#868686" fill-opacity="0.9"/>
<circle r="3" transform="matrix(1 0 0 -1 227 129)" fill="#868686" fill-opacity="0.9"/>
<circle r="3" transform="matrix(1 0 0 -1 227 143)" fill="#868686" fill-opacity="0.9"/>
<circle r="3" transform="matrix(1 0 0 -1 227 157)" fill="#868686" fill-opacity="0.9"/>
<circle r="3" transform="matrix(1 0 0 -1 227 171)" fill="#868686" fill-opacity="0.9"/>
<circle r="3" transform="matrix(1 0 0 -1 227 185)" fill="#868686" fill-opacity="0.9"/>
<circle r="3" transform="matrix(1 0 0 -1 227 199)" fill="#868686" fill-opacity="0.9"/>
<circle r="3" transform="matrix(1 0 0 -1 241 3)" fill="#868686" fill-opacity="0.9"/>
<circle r="3" transform="matrix(1 0 0 -1 241 17)" fill="#868686" fill-opacity="0.9"/>
<circle r="3" transform="matrix(1 0 0 -1 241 31)" fill="#868686" fill-opacity="0.9"/>
<circle r="3" transform="matrix(1 0 0 -1 241 45)" fill="#868686" fill-opacity="0.9"/>
<circle r="3" transform="matrix(1 0 0 -1 241 59)" fill="#868686" fill-opacity="0.9"/>
<circle r="3" transform="matrix(1 0 0 -1 241 73)" fill="#868686" fill-opacity="0.9"/>
<circle r="3" transform="matrix(1 0 0 -1 241 87)" fill="#868686" fill-opacity="0.9"/>
<circle r="3" transform="matrix(1 0 0 -1 241 101)" fill="#868686" fill-opacity="0.9"/>
<circle r="3" transform="matrix(1 0 0 -1 241 115)" fill="#868686" fill-opacity="0.9"/>
<circle r="3" transform="matrix(1 0 0 -1 241 129)" fill="#868686" fill-opacity="0.9"/>
<circle r="3" transform="matrix(1 0 0 -1 241 143)" fill="#868686" fill-opacity="0.9"/>
<circle r="3" transform="matrix(1 0 0 -1 241 157)" fill="#868686" fill-opacity="0.9"/>
<circle r="3" transform="matrix(1 0 0 -1 241 171)" fill="#868686" fill-opacity="0.9"/>
<circle r="3" transform="matrix(1 0 0 -1 241 185)" fill="#868686" fill-opacity="0.9"/>
<circle r="3" transform="matrix(1 0 0 -1 241 199)" fill="#868686" fill-opacity="0.9"/>
<circle r="3" transform="matrix(1 0 0 -1 255 3)" fill="#868686" fill-opacity="0.9"/>
<circle r="3" transform="matrix(1 0 0 -1 255 17)" fill="#868686" fill-opacity="0.9"/>
<circle r="3" transform="matrix(1 0 0 -1 255 31)" fill="#868686" fill-opacity="0.9"/>
<circle r="3" transform="matrix(1 0 0 -1 255 45)" fill="#868686" fill-opacity="0.9"/>
<circle r="3" transform="matrix(1 0 0 -1 255 59)" fill="#868686" fill-opacity="0.9"/>
<circle r="3" transform="matrix(1 0 0 -1 255 73)" fill="#868686" fill-opacity="0.9"/>
<circle r="3" transform="matrix(1 0 0 -1 255 87)" fill="#868686" fill-opacity="0.9"/>
<circle r="3" transform="matrix(1 0 0 -1 255 101)" fill="#868686" fill-opacity="0.9"/>
<circle r="3" transform="matrix(1 0 0 -1 255 115)" fill="#868686" fill-opacity="0.9"/>
<circle r="3" transform="matrix(1 0 0 -1 255 129)" fill="#868686" fill-opacity="0.9"/>
<circle r="3" transform="matrix(1 0 0 -1 255 143)" fill="#868686" fill-opacity="0.9"/>
<circle r="3" transform="matrix(1 0 0 -1 255 157)" fill="#868686" fill-opacity="0.9"/>
<circle r="3" transform="matrix(1 0 0 -1 255 171)" fill="#868686" fill-opacity="0.9"/>
<circle r="3" transform="matrix(1 0 0 -1 255 185)" fill="#868686" fill-opacity="0.9"/>
<circle r="3" transform="matrix(1 0 0 -1 255 199)" fill="#868686" fill-opacity="0.9"/>
<circle r="3" transform="matrix(1 0 0 -1 269 3)" fill="#868686" fill-opacity="0.9"/>
<circle r="3" transform="matrix(1 0 0 -1 269 17)" fill="#868686" fill-opacity="0.9"/>
<circle r="3" transform="matrix(1 0 0 -1 269 31)" fill="#868686" fill-opacity="0.9"/>
<circle r="3" transform="matrix(1 0 0 -1 269 45)" fill="#868686" fill-opacity="0.9"/>
<circle r="3" transform="matrix(1 0 0 -1 269 59)" fill="#868686" fill-opacity="0.9"/>
<circle r="3" transform="matrix(1 0 0 -1 269 73)" fill="#868686" fill-opacity="0.9"/>
<circle r="3" transform="matrix(1 0 0 -1 269 87)" fill="#868686" fill-opacity="0.9"/>
<circle r="3" transform="matrix(1 0 0 -1 269 101)" fill="#868686" fill-opacity="0.9"/>
<circle r="3" transform="matrix(1 0 0 -1 269 115)" fill="#868686" fill-opacity="0.9"/>
<circle r="3" transform="matrix(1 0 0 -1 269 129)" fill="#868686" fill-opacity="0.9"/>
<circle r="3" transform="matrix(1 0 0 -1 269 143)" fill="#868686" fill-opacity="0.9"/>
<circle r="3" transform="matrix(1 0 0 -1 269 157)" fill="#868686" fill-opacity="0.9"/>
<circle r="3" transform="matrix(1 0 0 -1 269 171)" fill="#868686" fill-opacity="0.9"/>
<circle r="3" transform="matrix(1 0 0 -1 269 185)" fill="#868686" fill-opacity="0.9"/>
<circle r="3" transform="matrix(1 0 0 -1 269 199)" fill="#868686" fill-opacity="0.9"/>
<circle r="3" transform="matrix(1 0 0 -1 283 3)" fill="#868686" fill-opacity="0.9"/>
<circle r="3" transform="matrix(1 0 0 -1 283 17)" fill="#868686" fill-opacity="0.9"/>
<circle r="3" transform="matrix(1 0 0 -1 283 31)" fill="#868686" fill-opacity="0.9"/>
<circle r="3" transform="matrix(1 0 0 -1 283 45)" fill="#868686" fill-opacity="0.9"/>
<circle r="3" transform="matrix(1 0 0 -1 283 59)" fill="#868686" fill-opacity="0.9"/>
<circle r="3" transform="matrix(1 0 0 -1 283 73)" fill="#868686" fill-opacity="0.9"/>
<circle r="3" transform="matrix(1 0 0 -1 283 87)" fill="#868686" fill-opacity="0.9"/>
<circle r="3" transform="matrix(1 0 0 -1 283 101)" fill="#868686" fill-opacity="0.9"/>
<circle r="3" transform="matrix(1 0 0 -1 283 115)" fill="#868686" fill-opacity="0.9"/>
<circle r="3" transform="matrix(1 0 0 -1 283 129)" fill="#868686" fill-opacity="0.9"/>
<circle r="3" transform="matrix(1 0 0 -1 283 143)" fill="#868686" fill-opacity="0.9"/>
<circle r="3" transform="matrix(1 0 0 -1 283 157)" fill="#868686" fill-opacity="0.9"/>
<circle r="3" transform="matrix(1 0 0 -1 283 171)" fill="#868686" fill-opacity="0.9"/>
<circle r="3" transform="matrix(1 0 0 -1 283 185)" fill="#868686" fill-opacity="0.9"/>
<circle r="3" transform="matrix(1 0 0 -1 283 199)" fill="#868686" fill-opacity="0.9"/>
<circle r="3" transform="matrix(1 0 0 -1 297 3)" fill="#868686" fill-opacity="0.9"/>
<circle r="3" transform="matrix(1 0 0 -1 297 17)" fill="#868686" fill-opacity="0.9"/>
<circle r="3" transform="matrix(1 0 0 -1 297 31)" fill="#868686" fill-opacity="0.9"/>
<circle r="3" transform="matrix(1 0 0 -1 297 45)" fill="#868686" fill-opacity="0.9"/>
<circle r="3" transform="matrix(1 0 0 -1 297 59)" fill="#868686" fill-opacity="0.9"/>
<circle r="3" transform="matrix(1 0 0 -1 297 73)" fill="#868686" fill-opacity="0.9"/>
<circle r="3" transform="matrix(1 0 0 -1 297 87)" fill="#868686" fill-opacity="0.9"/>
<circle r="3" transform="matrix(1 0 0 -1 297 101)" fill="#868686" fill-opacity="0.9"/>
<circle r="3" transform="matrix(1 0 0 -1 297 115)" fill="#868686" fill-opacity="0.9"/>
<circle r="3" transform="matrix(1 0 0 -1 297 129)" fill="#868686" fill-opacity="0.9"/>
<circle r="3" transform="matrix(1 0 0 -1 297 143)" fill="#868686" fill-opacity="0.9"/>
<circle r="3" transform="matrix(1 0 0 -1 297 157)" fill="#868686" fill-opacity="0.9"/>
<circle r="3" transform="matrix(1 0 0 -1 297 171)" fill="#868686" fill-opacity="0.9"/>
<circle r="3" transform="matrix(1 0 0 -1 297 185)" fill="#868686" fill-opacity="0.9"/>
<circle r="3" transform="matrix(1 0 0 -1 297 199)" fill="#868686" fill-opacity="0.9"/>
<circle r="3" transform="matrix(1 0 0 -1 311 3)" fill="#868686" fill-opacity="0.9"/>
<circle r="3" transform="matrix(1 0 0 -1 311 17)" fill="#868686" fill-opacity="0.9"/>
<circle r="3" transform="matrix(1 0 0 -1 311 31)" fill="#868686" fill-opacity="0.9"/>
<circle r="3" transform="matrix(1 0 0 -1 311 45)" fill="#868686" fill-opacity="0.9"/>
<circle r="3" transform="matrix(1 0 0 -1 311 59)" fill="#868686" fill-opacity="0.9"/>
<circle r="3" transform="matrix(1 0 0 -1 311 73)" fill="#868686" fill-opacity="0.9"/>
<circle r="3" transform="matrix(1 0 0 -1 311 87)" fill="#868686" fill-opacity="0.9"/>
<circle r="3" transform="matrix(1 0 0 -1 311 101)" fill="#868686" fill-opacity="0.9"/>
<circle r="3" transform="matrix(1 0 0 -1 311 115)" fill="#868686" fill-opacity="0.9"/>
<circle r="3" transform="matrix(1 0 0 -1 311 129)" fill="#868686" fill-opacity="0.9"/>
<circle r="3" transform="matrix(1 0 0 -1 311 143)" fill="#868686" fill-opacity="0.9"/>
<circle r="3" transform="matrix(1 0 0 -1 311 157)" fill="#868686" fill-opacity="0.9"/>
<circle r="3" transform="matrix(1 0 0 -1 311 171)" fill="#868686" fill-opacity="0.9"/>
<circle r="3" transform="matrix(1 0 0 -1 311 185)" fill="#868686" fill-opacity="0.9"/>
<circle r="3" transform="matrix(1 0 0 -1 311 199)" fill="#868686" fill-opacity="0.9"/>
<circle r="3" transform="matrix(1 0 0 -1 325 3)" fill="#868686" fill-opacity="0.9"/>
<circle r="3" transform="matrix(1 0 0 -1 325 17)" fill="#868686" fill-opacity="0.9"/>
<circle r="3" transform="matrix(1 0 0 -1 325 31)" fill="#868686" fill-opacity="0.9"/>
<circle r="3" transform="matrix(1 0 0 -1 325 45)" fill="#868686" fill-opacity="0.9"/>
<circle r="3" transform="matrix(1 0 0 -1 325 59)" fill="#868686" fill-opacity="0.9"/>
<circle r="3" transform="matrix(1 0 0 -1 325 73)" fill="#868686" fill-opacity="0.9"/>
<circle r="3" transform="matrix(1 0 0 -1 325 87)" fill="#868686" fill-opacity="0.9"/>
<circle r="3" transform="matrix(1 0 0 -1 325 101)" fill="#868686" fill-opacity="0.9"/>
<circle r="3" transform="matrix(1 0 0 -1 325 115)" fill="#868686" fill-opacity="0.9"/>
<circle r="3" transform="matrix(1 0 0 -1 325 129)" fill="#868686" fill-opacity="0.9"/>
<circle r="3" transform="matrix(1 0 0 -1 325 143)" fill="#868686" fill-opacity="0.9"/>
<circle r="3" transform="matrix(1 0 0 -1 325 157)" fill="#868686" fill-opacity="0.9"/>
<circle r="3" transform="matrix(1 0 0 -1 325 171)" fill="#868686" fill-opacity="0.9"/>
<circle r="3" transform="matrix(1 0 0 -1 325 185)" fill="#868686" fill-opacity="0.9"/>
<circle r="3" transform="matrix(1 0 0 -1 325 199)" fill="#868686" fill-opacity="0.9"/>
<circle r="3" transform="matrix(1 0 0 -1 339 3)" fill="#868686" fill-opacity="0.9"/>
<circle r="3" transform="matrix(1 0 0 -1 339 17)" fill="#868686" fill-opacity="0.9"/>
<circle r="3" transform="matrix(1 0 0 -1 339 31)" fill="#868686" fill-opacity="0.9"/>
<circle r="3" transform="matrix(1 0 0 -1 339 45)" fill="#868686" fill-opacity="0.9"/>
<circle r="3" transform="matrix(1 0 0 -1 339 59)" fill="#868686" fill-opacity="0.9"/>
<circle r="3" transform="matrix(1 0 0 -1 339 73)" fill="#868686" fill-opacity="0.9"/>
<circle r="3" transform="matrix(1 0 0 -1 339 87)" fill="#868686" fill-opacity="0.9"/>
<circle r="3" transform="matrix(1 0 0 -1 339 101)" fill="#868686" fill-opacity="0.9"/>
<circle r="3" transform="matrix(1 0 0 -1 339 115)" fill="#868686" fill-opacity="0.9"/>
<circle r="3" transform="matrix(1 0 0 -1 339 129)" fill="#868686" fill-opacity="0.9"/>
<circle r="3" transform="matrix(1 0 0 -1 339 143)" fill="#868686" fill-opacity="0.9"/>
<circle r="3" transform="matrix(1 0 0 -1 339 157)" fill="#868686" fill-opacity="0.9"/>
<circle r="3" transform="matrix(1 0 0 -1 339 171)" fill="#868686" fill-opacity="0.9"/>
<circle r="3" transform="matrix(1 0 0 -1 339 185)" fill="#868686" fill-opacity="0.9"/>
<circle r="3" transform="matrix(1 0 0 -1 339 199)" fill="#868686" fill-opacity="0.9"/>
<circle r="3" transform="matrix(1 0 0 -1 353 3)" fill="#868686" fill-opacity="0.9"/>
<circle r="3" transform="matrix(1 0 0 -1 353 17)" fill="#868686" fill-opacity="0.9"/>
<circle r="3" transform="matrix(1 0 0 -1 353 31)" fill="#868686" fill-opacity="0.9"/>
<circle r="3" transform="matrix(1 0 0 -1 353 45)" fill="#868686" fill-opacity="0.9"/>
<circle r="3" transform="matrix(1 0 0 -1 353 59)" fill="#868686" fill-opacity="0.9"/>
<circle r="3" transform="matrix(1 0 0 -1 353 73)" fill="#868686" fill-opacity="0.9"/>
<circle r="3" transform="matrix(1 0 0 -1 353 87)" fill="#868686" fill-opacity="0.9"/>
<circle r="3" transform="matrix(1 0 0 -1 353 101)" fill="#868686" fill-opacity="0.9"/>
<circle r="3" transform="matrix(1 0 0 -1 353 115)" fill="#868686" fill-opacity="0.9"/>
<circle r="3" transform="matrix(1 0 0 -1 353 129)" fill="#868686" fill-opacity="0.9"/>
<circle r="3" transform="matrix(1 0 0 -1 353 143)" fill="#868686" fill-opacity="0.9"/>
<circle r="3" transform="matrix(1 0 0 -1 353 157)" fill="#868686" fill-opacity="0.9"/>
<circle r="3" transform="matrix(1 0 0 -1 353 171)" fill="#868686" fill-opacity="0.9"/>
<circle r="3" transform="matrix(1 0 0 -1 353 185)" fill="#868686" fill-opacity="0.9"/>
<circle r="3" transform="matrix(1 0 0 -1 353 199)" fill="#868686" fill-opacity="0.9"/>
<circle r="3" transform="matrix(1 0 0 -1 367 3)" fill="#868686" fill-opacity="0.9"/>
<circle r="3" transform="matrix(1 0 0 -1 367 17)" fill="#868686" fill-opacity="0.9"/>
<circle r="3" transform="matrix(1 0 0 -1 367 31)" fill="#868686" fill-opacity="0.9"/>
<circle r="3" transform="matrix(1 0 0 -1 367 45)" fill="#868686" fill-opacity="0.9"/>
<circle r="3" transform="matrix(1 0 0 -1 367 59)" fill="#868686" fill-opacity="0.9"/>
<circle r="3" transform="matrix(1 0 0 -1 367 73)" fill="#868686" fill-opacity="0.9"/>
<circle r="3" transform="matrix(1 0 0 -1 367 87)" fill="#868686" fill-opacity="0.9"/>
<circle r="3" transform="matrix(1 0 0 -1 367 101)" fill="#868686" fill-opacity="0.9"/>
<circle r="3" transform="matrix(1 0 0 -1 367 115)" fill="#868686" fill-opacity="0.9"/>
<circle r="3" transform="matrix(1 0 0 -1 367 129)" fill="#868686" fill-opacity="0.9"/>
<circle r="3" transform="matrix(1 0 0 -1 367 143)" fill="#868686" fill-opacity="0.9"/>
<circle r="3" transform="matrix(1 0 0 -1 367 157)" fill="#868686" fill-opacity="0.9"/>
<circle r="3" transform="matrix(1 0 0 -1 367 171)" fill="#868686" fill-opacity="0.9"/>
<circle r="3" transform="matrix(1 0 0 -1 367 185)" fill="#868686" fill-opacity="0.9"/>
<circle r="3" transform="matrix(1 0 0 -1 367 199)" fill="#868686" fill-opacity="0.9"/>
</g>
</svg>
