<svg width="202" height="370" viewBox="0 0 202 370" fill="none" xmlns="http://www.w3.org/2000/svg">
<g opacity="0.61">
<circle r="3" transform="matrix(0 -1 -1 0 3 367)" fill="#868686" fill-opacity="0.9"/>
<circle r="3" transform="matrix(0 -1 -1 0 17 367)" fill="#868686" fill-opacity="0.9"/>
<circle r="3" transform="matrix(0 -1 -1 0 31 367)" fill="#868686" fill-opacity="0.9"/>
<circle r="3" transform="matrix(0 -1 -1 0 45 367)" fill="#868686" fill-opacity="0.9"/>
<circle r="3" transform="matrix(0 -1 -1 0 59 367)" fill="#868686" fill-opacity="0.9"/>
<circle r="3" transform="matrix(0 -1 -1 0 73 367)" fill="#868686" fill-opacity="0.9"/>
<circle r="3" transform="matrix(0 -1 -1 0 87 367)" fill="#868686" fill-opacity="0.9"/>
<circle r="3" transform="matrix(0 -1 -1 0 101 367)" fill="#868686" fill-opacity="0.9"/>
<circle r="3" transform="matrix(0 -1 -1 0 115 367)" fill="#868686" fill-opacity="0.9"/>
<circle r="3" transform="matrix(0 -1 -1 0 129 367)" fill="#868686" fill-opacity="0.9"/>
<circle r="3" transform="matrix(0 -1 -1 0 143 367)" fill="#868686" fill-opacity="0.9"/>
<circle r="3" transform="matrix(0 -1 -1 0 157 367)" fill="#868686" fill-opacity="0.9"/>
<circle r="3" transform="matrix(0 -1 -1 0 171 367)" fill="#868686" fill-opacity="0.9"/>
<circle r="3" transform="matrix(0 -1 -1 0 185 367)" fill="#868686" fill-opacity="0.9"/>
<circle r="3" transform="matrix(0 -1 -1 0 199 367)" fill="#868686" fill-opacity="0.9"/>
<circle r="3" transform="matrix(0 -1 -1 0 3 353)" fill="#868686" fill-opacity="0.9"/>
<circle r="3" transform="matrix(0 -1 -1 0 17 353)" fill="#868686" fill-opacity="0.9"/>
<circle r="3" transform="matrix(0 -1 -1 0 31 353)" fill="#868686" fill-opacity="0.9"/>
<circle r="3" transform="matrix(0 -1 -1 0 45 353)" fill="#868686" fill-opacity="0.9"/>
<circle r="3" transform="matrix(0 -1 -1 0 59 353)" fill="#868686" fill-opacity="0.9"/>
<circle r="3" transform="matrix(0 -1 -1 0 73 353)" fill="#868686" fill-opacity="0.9"/>
<circle r="3" transform="matrix(0 -1 -1 0 87 353)" fill="#868686" fill-opacity="0.9"/>
<circle r="3" transform="matrix(0 -1 -1 0 101 353)" fill="#868686" fill-opacity="0.9"/>
<circle r="3" transform="matrix(0 -1 -1 0 115 353)" fill="#868686" fill-opacity="0.9"/>
<circle r="3" transform="matrix(0 -1 -1 0 129 353)" fill="#868686" fill-opacity="0.9"/>
<circle r="3" transform="matrix(0 -1 -1 0 143 353)" fill="#868686" fill-opacity="0.9"/>
<circle r="3" transform="matrix(0 -1 -1 0 157 353)" fill="#868686" fill-opacity="0.9"/>
<circle r="3" transform="matrix(0 -1 -1 0 171 353)" fill="#868686" fill-opacity="0.9"/>
<circle r="3" transform="matrix(0 -1 -1 0 185 353)" fill="#868686" fill-opacity="0.9"/>
<circle r="3" transform="matrix(0 -1 -1 0 199 353)" fill="#868686" fill-opacity="0.9"/>
<circle r="3" transform="matrix(0 -1 -1 0 3 339)" fill="#868686" fill-opacity="0.9"/>
<circle r="3" transform="matrix(0 -1 -1 0 17 339)" fill="#868686" fill-opacity="0.9"/>
<circle r="3" transform="matrix(0 -1 -1 0 31 339)" fill="#868686" fill-opacity="0.9"/>
<circle r="3" transform="matrix(0 -1 -1 0 45 339)" fill="#868686" fill-opacity="0.9"/>
<circle r="3" transform="matrix(0 -1 -1 0 59 339)" fill="#868686" fill-opacity="0.9"/>
<circle r="3" transform="matrix(0 -1 -1 0 73 339)" fill="#868686" fill-opacity="0.9"/>
<circle r="3" transform="matrix(0 -1 -1 0 87 339)" fill="#868686" fill-opacity="0.9"/>
<circle r="3" transform="matrix(0 -1 -1 0 101 339)" fill="#868686" fill-opacity="0.9"/>
<circle r="3" transform="matrix(0 -1 -1 0 115 339)" fill="#868686" fill-opacity="0.9"/>
<circle r="3" transform="matrix(0 -1 -1 0 129 339)" fill="#868686" fill-opacity="0.9"/>
<circle r="3" transform="matrix(0 -1 -1 0 143 339)" fill="#868686" fill-opacity="0.9"/>
<circle r="3" transform="matrix(0 -1 -1 0 157 339)" fill="#868686" fill-opacity="0.9"/>
<circle r="3" transform="matrix(0 -1 -1 0 171 339)" fill="#868686" fill-opacity="0.9"/>
<circle r="3" transform="matrix(0 -1 -1 0 185 339)" fill="#868686" fill-opacity="0.9"/>
<circle r="3" transform="matrix(0 -1 -1 0 199 339)" fill="#868686" fill-opacity="0.9"/>
<circle r="3" transform="matrix(0 -1 -1 0 3 325)" fill="#868686" fill-opacity="0.9"/>
<circle r="3" transform="matrix(0 -1 -1 0 17 325)" fill="#868686" fill-opacity="0.9"/>
<circle r="3" transform="matrix(0 -1 -1 0 31 325)" fill="#868686" fill-opacity="0.9"/>
<circle r="3" transform="matrix(0 -1 -1 0 45 325)" fill="#868686" fill-opacity="0.9"/>
<circle r="3" transform="matrix(0 -1 -1 0 59 325)" fill="#868686" fill-opacity="0.9"/>
<circle r="3" transform="matrix(0 -1 -1 0 73 325)" fill="#868686" fill-opacity="0.9"/>
<circle r="3" transform="matrix(0 -1 -1 0 87 325)" fill="#868686" fill-opacity="0.9"/>
<circle r="3" transform="matrix(0 -1 -1 0 101 325)" fill="#868686" fill-opacity="0.9"/>
<circle r="3" transform="matrix(0 -1 -1 0 115 325)" fill="#868686" fill-opacity="0.9"/>
<circle r="3" transform="matrix(0 -1 -1 0 129 325)" fill="#868686" fill-opacity="0.9"/>
<circle r="3" transform="matrix(0 -1 -1 0 143 325)" fill="#868686" fill-opacity="0.9"/>
<circle r="3" transform="matrix(0 -1 -1 0 157 325)" fill="#868686" fill-opacity="0.9"/>
<circle r="3" transform="matrix(0 -1 -1 0 171 325)" fill="#868686" fill-opacity="0.9"/>
<circle r="3" transform="matrix(0 -1 -1 0 185 325)" fill="#868686" fill-opacity="0.9"/>
<circle r="3" transform="matrix(0 -1 -1 0 199 325)" fill="#868686" fill-opacity="0.9"/>
<circle r="3" transform="matrix(0 -1 -1 0 3 311)" fill="#868686" fill-opacity="0.9"/>
<circle r="3" transform="matrix(0 -1 -1 0 17 311)" fill="#868686" fill-opacity="0.9"/>
<circle r="3" transform="matrix(0 -1 -1 0 31 311)" fill="#868686" fill-opacity="0.9"/>
<circle r="3" transform="matrix(0 -1 -1 0 45 311)" fill="#868686" fill-opacity="0.9"/>
<circle r="3" transform="matrix(0 -1 -1 0 59 311)" fill="#868686" fill-opacity="0.9"/>
<circle r="3" transform="matrix(0 -1 -1 0 73 311)" fill="#868686" fill-opacity="0.9"/>
<circle r="3" transform="matrix(0 -1 -1 0 87 311)" fill="#868686" fill-opacity="0.9"/>
<circle r="3" transform="matrix(0 -1 -1 0 101 311)" fill="#868686" fill-opacity="0.9"/>
<circle r="3" transform="matrix(0 -1 -1 0 115 311)" fill="#868686" fill-opacity="0.9"/>
<circle r="3" transform="matrix(0 -1 -1 0 129 311)" fill="#868686" fill-opacity="0.9"/>
<circle r="3" transform="matrix(0 -1 -1 0 143 311)" fill="#868686" fill-opacity="0.9"/>
<circle r="3" transform="matrix(0 -1 -1 0 157 311)" fill="#868686" fill-opacity="0.9"/>
<circle r="3" transform="matrix(0 -1 -1 0 171 311)" fill="#868686" fill-opacity="0.9"/>
<circle r="3" transform="matrix(0 -1 -1 0 185 311)" fill="#868686" fill-opacity="0.9"/>
<circle r="3" transform="matrix(0 -1 -1 0 199 311)" fill="#868686" fill-opacity="0.9"/>
<circle r="3" transform="matrix(0 -1 -1 0 3 297)" fill="#868686" fill-opacity="0.9"/>
<circle r="3" transform="matrix(0 -1 -1 0 17 297)" fill="#868686" fill-opacity="0.9"/>
<circle r="3" transform="matrix(0 -1 -1 0 31 297)" fill="#868686" fill-opacity="0.9"/>
<circle r="3" transform="matrix(0 -1 -1 0 45 297)" fill="#868686" fill-opacity="0.9"/>
<circle r="3" transform="matrix(0 -1 -1 0 59 297)" fill="#868686" fill-opacity="0.9"/>
<circle r="3" transform="matrix(0 -1 -1 0 73 297)" fill="#868686" fill-opacity="0.9"/>
<circle r="3" transform="matrix(0 -1 -1 0 87 297)" fill="#868686" fill-opacity="0.9"/>
<circle r="3" transform="matrix(0 -1 -1 0 101 297)" fill="#868686" fill-opacity="0.9"/>
<circle r="3" transform="matrix(0 -1 -1 0 115 297)" fill="#868686" fill-opacity="0.9"/>
<circle r="3" transform="matrix(0 -1 -1 0 129 297)" fill="#868686" fill-opacity="0.9"/>
<circle r="3" transform="matrix(0 -1 -1 0 143 297)" fill="#868686" fill-opacity="0.9"/>
<circle r="3" transform="matrix(0 -1 -1 0 157 297)" fill="#868686" fill-opacity="0.9"/>
<circle r="3" transform="matrix(0 -1 -1 0 171 297)" fill="#868686" fill-opacity="0.9"/>
<circle r="3" transform="matrix(0 -1 -1 0 185 297)" fill="#868686" fill-opacity="0.9"/>
<circle r="3" transform="matrix(0 -1 -1 0 199 297)" fill="#868686" fill-opacity="0.9"/>
<circle r="3" transform="matrix(0 -1 -1 0 3 283)" fill="#868686" fill-opacity="0.9"/>
<circle r="3" transform="matrix(0 -1 -1 0 17 283)" fill="#868686" fill-opacity="0.9"/>
<circle r="3" transform="matrix(0 -1 -1 0 31 283)" fill="#868686" fill-opacity="0.9"/>
<circle r="3" transform="matrix(0 -1 -1 0 45 283)" fill="#868686" fill-opacity="0.9"/>
<circle r="3" transform="matrix(0 -1 -1 0 59 283)" fill="#868686" fill-opacity="0.9"/>
<circle r="3" transform="matrix(0 -1 -1 0 73 283)" fill="#868686" fill-opacity="0.9"/>
<circle r="3" transform="matrix(0 -1 -1 0 87 283)" fill="#868686" fill-opacity="0.9"/>
<circle r="3" transform="matrix(0 -1 -1 0 101 283)" fill="#868686" fill-opacity="0.9"/>
<circle r="3" transform="matrix(0 -1 -1 0 115 283)" fill="#868686" fill-opacity="0.9"/>
<circle r="3" transform="matrix(0 -1 -1 0 129 283)" fill="#868686" fill-opacity="0.9"/>
<circle r="3" transform="matrix(0 -1 -1 0 143 283)" fill="#868686" fill-opacity="0.9"/>
<circle r="3" transform="matrix(0 -1 -1 0 157 283)" fill="#868686" fill-opacity="0.9"/>
<circle r="3" transform="matrix(0 -1 -1 0 171 283)" fill="#868686" fill-opacity="0.9"/>
<circle r="3" transform="matrix(0 -1 -1 0 185 283)" fill="#868686" fill-opacity="0.9"/>
<circle r="3" transform="matrix(0 -1 -1 0 199 283)" fill="#868686" fill-opacity="0.9"/>
<circle r="3" transform="matrix(0 -1 -1 0 3 269)" fill="#868686" fill-opacity="0.9"/>
<circle r="3" transform="matrix(0 -1 -1 0 17 269)" fill="#868686" fill-opacity="0.9"/>
<circle r="3" transform="matrix(0 -1 -1 0 31 269)" fill="#868686" fill-opacity="0.9"/>
<circle r="3" transform="matrix(0 -1 -1 0 45 269)" fill="#868686" fill-opacity="0.9"/>
<circle r="3" transform="matrix(0 -1 -1 0 59 269)" fill="#868686" fill-opacity="0.9"/>
<circle r="3" transform="matrix(0 -1 -1 0 73 269)" fill="#868686" fill-opacity="0.9"/>
<circle r="3" transform="matrix(0 -1 -1 0 87 269)" fill="#868686" fill-opacity="0.9"/>
<circle r="3" transform="matrix(0 -1 -1 0 101 269)" fill="#868686" fill-opacity="0.9"/>
<circle r="3" transform="matrix(0 -1 -1 0 115 269)" fill="#868686" fill-opacity="0.9"/>
<circle r="3" transform="matrix(0 -1 -1 0 129 269)" fill="#868686" fill-opacity="0.9"/>
<circle r="3" transform="matrix(0 -1 -1 0 143 269)" fill="#868686" fill-opacity="0.9"/>
<circle r="3" transform="matrix(0 -1 -1 0 157 269)" fill="#868686" fill-opacity="0.9"/>
<circle r="3" transform="matrix(0 -1 -1 0 171 269)" fill="#868686" fill-opacity="0.9"/>
<circle r="3" transform="matrix(0 -1 -1 0 185 269)" fill="#868686" fill-opacity="0.9"/>
<circle r="3" transform="matrix(0 -1 -1 0 199 269)" fill="#868686" fill-opacity="0.9"/>
<circle r="3" transform="matrix(0 -1 -1 0 3 255)" fill="#868686" fill-opacity="0.9"/>
<circle r="3" transform="matrix(0 -1 -1 0 17 255)" fill="#868686" fill-opacity="0.9"/>
<circle r="3" transform="matrix(0 -1 -1 0 31 255)" fill="#868686" fill-opacity="0.9"/>
<circle r="3" transform="matrix(0 -1 -1 0 45 255)" fill="#868686" fill-opacity="0.9"/>
<circle r="3" transform="matrix(0 -1 -1 0 59 255)" fill="#868686" fill-opacity="0.9"/>
<circle r="3" transform="matrix(0 -1 -1 0 73 255)" fill="#868686" fill-opacity="0.9"/>
<circle r="3" transform="matrix(0 -1 -1 0 87 255)" fill="#868686" fill-opacity="0.9"/>
<circle r="3" transform="matrix(0 -1 -1 0 101 255)" fill="#868686" fill-opacity="0.9"/>
<circle r="3" transform="matrix(0 -1 -1 0 115 255)" fill="#868686" fill-opacity="0.9"/>
<circle r="3" transform="matrix(0 -1 -1 0 129 255)" fill="#868686" fill-opacity="0.9"/>
<circle r="3" transform="matrix(0 -1 -1 0 143 255)" fill="#868686" fill-opacity="0.9"/>
<circle r="3" transform="matrix(0 -1 -1 0 157 255)" fill="#868686" fill-opacity="0.9"/>
<circle r="3" transform="matrix(0 -1 -1 0 171 255)" fill="#868686" fill-opacity="0.9"/>
<circle r="3" transform="matrix(0 -1 -1 0 185 255)" fill="#868686" fill-opacity="0.9"/>
<circle r="3" transform="matrix(0 -1 -1 0 199 255)" fill="#868686" fill-opacity="0.9"/>
<circle r="3" transform="matrix(0 -1 -1 0 3 241)" fill="#868686" fill-opacity="0.9"/>
<circle r="3" transform="matrix(0 -1 -1 0 17 241)" fill="#868686" fill-opacity="0.9"/>
<circle r="3" transform="matrix(0 -1 -1 0 31 241)" fill="#868686" fill-opacity="0.9"/>
<circle r="3" transform="matrix(0 -1 -1 0 45 241)" fill="#868686" fill-opacity="0.9"/>
<circle r="3" transform="matrix(0 -1 -1 0 59 241)" fill="#868686" fill-opacity="0.9"/>
<circle r="3" transform="matrix(0 -1 -1 0 73 241)" fill="#868686" fill-opacity="0.9"/>
<circle r="3" transform="matrix(0 -1 -1 0 87 241)" fill="#868686" fill-opacity="0.9"/>
<circle r="3" transform="matrix(0 -1 -1 0 101 241)" fill="#868686" fill-opacity="0.9"/>
<circle r="3" transform="matrix(0 -1 -1 0 115 241)" fill="#868686" fill-opacity="0.9"/>
<circle r="3" transform="matrix(0 -1 -1 0 129 241)" fill="#868686" fill-opacity="0.9"/>
<circle r="3" transform="matrix(0 -1 -1 0 143 241)" fill="#868686" fill-opacity="0.9"/>
<circle r="3" transform="matrix(0 -1 -1 0 157 241)" fill="#868686" fill-opacity="0.9"/>
<circle r="3" transform="matrix(0 -1 -1 0 171 241)" fill="#868686" fill-opacity="0.9"/>
<circle r="3" transform="matrix(0 -1 -1 0 185 241)" fill="#868686" fill-opacity="0.9"/>
<circle r="3" transform="matrix(0 -1 -1 0 199 241)" fill="#868686" fill-opacity="0.9"/>
<circle r="3" transform="matrix(0 -1 -1 0 3 227)" fill="#868686" fill-opacity="0.9"/>
<circle r="3" transform="matrix(0 -1 -1 0 17 227)" fill="#868686" fill-opacity="0.9"/>
<circle r="3" transform="matrix(0 -1 -1 0 31 227)" fill="#868686" fill-opacity="0.9"/>
<circle r="3" transform="matrix(0 -1 -1 0 45 227)" fill="#868686" fill-opacity="0.9"/>
<circle r="3" transform="matrix(0 -1 -1 0 59 227)" fill="#868686" fill-opacity="0.9"/>
<circle r="3" transform="matrix(0 -1 -1 0 73 227)" fill="#868686" fill-opacity="0.9"/>
<circle r="3" transform="matrix(0 -1 -1 0 87 227)" fill="#868686" fill-opacity="0.9"/>
<circle r="3" transform="matrix(0 -1 -1 0 101 227)" fill="#868686" fill-opacity="0.9"/>
<circle r="3" transform="matrix(0 -1 -1 0 115 227)" fill="#868686" fill-opacity="0.9"/>
<circle r="3" transform="matrix(0 -1 -1 0 129 227)" fill="#868686" fill-opacity="0.9"/>
<circle r="3" transform="matrix(0 -1 -1 0 143 227)" fill="#868686" fill-opacity="0.9"/>
<circle r="3" transform="matrix(0 -1 -1 0 157 227)" fill="#868686" fill-opacity="0.9"/>
<circle r="3" transform="matrix(0 -1 -1 0 171 227)" fill="#868686" fill-opacity="0.9"/>
<circle r="3" transform="matrix(0 -1 -1 0 185 227)" fill="#868686" fill-opacity="0.9"/>
<circle r="3" transform="matrix(0 -1 -1 0 199 227)" fill="#868686" fill-opacity="0.9"/>
<circle r="3" transform="matrix(0 -1 -1 0 3 213)" fill="#868686" fill-opacity="0.9"/>
<circle r="3" transform="matrix(0 -1 -1 0 17 213)" fill="#868686" fill-opacity="0.9"/>
<circle r="3" transform="matrix(0 -1 -1 0 31 213)" fill="#868686" fill-opacity="0.9"/>
<circle r="3" transform="matrix(0 -1 -1 0 45 213)" fill="#868686" fill-opacity="0.9"/>
<circle r="3" transform="matrix(0 -1 -1 0 59 213)" fill="#868686" fill-opacity="0.9"/>
<circle r="3" transform="matrix(0 -1 -1 0 73 213)" fill="#868686" fill-opacity="0.9"/>
<circle r="3" transform="matrix(0 -1 -1 0 87 213)" fill="#868686" fill-opacity="0.9"/>
<circle r="3" transform="matrix(0 -1 -1 0 101 213)" fill="#868686" fill-opacity="0.9"/>
<circle r="3" transform="matrix(0 -1 -1 0 115 213)" fill="#868686" fill-opacity="0.9"/>
<circle r="3" transform="matrix(0 -1 -1 0 129 213)" fill="#868686" fill-opacity="0.9"/>
<circle r="3" transform="matrix(0 -1 -1 0 143 213)" fill="#868686" fill-opacity="0.9"/>
<circle r="3" transform="matrix(0 -1 -1 0 157 213)" fill="#868686" fill-opacity="0.9"/>
<circle r="3" transform="matrix(0 -1 -1 0 171 213)" fill="#868686" fill-opacity="0.9"/>
<circle r="3" transform="matrix(0 -1 -1 0 185 213)" fill="#868686" fill-opacity="0.9"/>
<circle r="3" transform="matrix(0 -1 -1 0 199 213)" fill="#868686" fill-opacity="0.9"/>
<circle r="3" transform="matrix(0 -1 -1 0 3 199)" fill="#868686" fill-opacity="0.9"/>
<circle r="3" transform="matrix(0 -1 -1 0 17 199)" fill="#868686" fill-opacity="0.9"/>
<circle r="3" transform="matrix(0 -1 -1 0 31 199)" fill="#868686" fill-opacity="0.9"/>
<circle r="3" transform="matrix(0 -1 -1 0 45 199)" fill="#868686" fill-opacity="0.9"/>
<circle r="3" transform="matrix(0 -1 -1 0 59 199)" fill="#868686" fill-opacity="0.9"/>
<circle r="3" transform="matrix(0 -1 -1 0 73 199)" fill="#868686" fill-opacity="0.9"/>
<circle r="3" transform="matrix(0 -1 -1 0 87 199)" fill="#868686" fill-opacity="0.9"/>
<circle r="3" transform="matrix(0 -1 -1 0 101 199)" fill="#868686" fill-opacity="0.9"/>
<circle r="3" transform="matrix(0 -1 -1 0 115 199)" fill="#868686" fill-opacity="0.9"/>
<circle r="3" transform="matrix(0 -1 -1 0 129 199)" fill="#868686" fill-opacity="0.9"/>
<circle r="3" transform="matrix(0 -1 -1 0 143 199)" fill="#868686" fill-opacity="0.9"/>
<circle r="3" transform="matrix(0 -1 -1 0 157 199)" fill="#868686" fill-opacity="0.9"/>
<circle r="3" transform="matrix(0 -1 -1 0 171 199)" fill="#868686" fill-opacity="0.9"/>
<circle r="3" transform="matrix(0 -1 -1 0 185 199)" fill="#868686" fill-opacity="0.9"/>
<circle r="3" transform="matrix(0 -1 -1 0 199 199)" fill="#868686" fill-opacity="0.9"/>
<circle r="3" transform="matrix(0 -1 -1 0 3 185)" fill="#868686" fill-opacity="0.9"/>
<circle r="3" transform="matrix(0 -1 -1 0 17 185)" fill="#868686" fill-opacity="0.9"/>
<circle r="3" transform="matrix(0 -1 -1 0 31 185)" fill="#868686" fill-opacity="0.9"/>
<circle r="3" transform="matrix(0 -1 -1 0 45 185)" fill="#868686" fill-opacity="0.9"/>
<circle r="3" transform="matrix(0 -1 -1 0 59 185)" fill="#868686" fill-opacity="0.9"/>
<circle r="3" transform="matrix(0 -1 -1 0 73 185)" fill="#868686" fill-opacity="0.9"/>
<circle r="3" transform="matrix(0 -1 -1 0 87 185)" fill="#868686" fill-opacity="0.9"/>
<circle r="3" transform="matrix(0 -1 -1 0 101 185)" fill="#868686" fill-opacity="0.9"/>
<circle r="3" transform="matrix(0 -1 -1 0 115 185)" fill="#868686" fill-opacity="0.9"/>
<circle r="3" transform="matrix(0 -1 -1 0 129 185)" fill="#868686" fill-opacity="0.9"/>
<circle r="3" transform="matrix(0 -1 -1 0 143 185)" fill="#868686" fill-opacity="0.9"/>
<circle r="3" transform="matrix(0 -1 -1 0 157 185)" fill="#868686" fill-opacity="0.9"/>
<circle r="3" transform="matrix(0 -1 -1 0 171 185)" fill="#868686" fill-opacity="0.9"/>
<circle r="3" transform="matrix(0 -1 -1 0 185 185)" fill="#868686" fill-opacity="0.9"/>
<circle r="3" transform="matrix(0 -1 -1 0 199 185)" fill="#868686" fill-opacity="0.9"/>
<circle r="3" transform="matrix(0 -1 -1 0 3 171)" fill="#868686" fill-opacity="0.9"/>
<circle r="3" transform="matrix(0 -1 -1 0 17 171)" fill="#868686" fill-opacity="0.9"/>
<circle r="3" transform="matrix(0 -1 -1 0 31 171)" fill="#868686" fill-opacity="0.9"/>
<circle r="3" transform="matrix(0 -1 -1 0 45 171)" fill="#868686" fill-opacity="0.9"/>
<circle r="3" transform="matrix(0 -1 -1 0 59 171)" fill="#868686" fill-opacity="0.9"/>
<circle r="3" transform="matrix(0 -1 -1 0 73 171)" fill="#868686" fill-opacity="0.9"/>
<circle r="3" transform="matrix(0 -1 -1 0 87 171)" fill="#868686" fill-opacity="0.9"/>
<circle r="3" transform="matrix(0 -1 -1 0 101 171)" fill="#868686" fill-opacity="0.9"/>
<circle r="3" transform="matrix(0 -1 -1 0 115 171)" fill="#868686" fill-opacity="0.9"/>
<circle r="3" transform="matrix(0 -1 -1 0 129 171)" fill="#868686" fill-opacity="0.9"/>
<circle r="3" transform="matrix(0 -1 -1 0 143 171)" fill="#868686" fill-opacity="0.9"/>
<circle r="3" transform="matrix(0 -1 -1 0 157 171)" fill="#868686" fill-opacity="0.9"/>
<circle r="3" transform="matrix(0 -1 -1 0 171 171)" fill="#868686" fill-opacity="0.9"/>
<circle r="3" transform="matrix(0 -1 -1 0 185 171)" fill="#868686" fill-opacity="0.9"/>
<circle r="3" transform="matrix(0 -1 -1 0 199 171)" fill="#868686" fill-opacity="0.9"/>
<circle r="3" transform="matrix(0 -1 -1 0 3 157)" fill="#868686" fill-opacity="0.9"/>
<circle r="3" transform="matrix(0 -1 -1 0 17 157)" fill="#868686" fill-opacity="0.9"/>
<circle r="3" transform="matrix(0 -1 -1 0 31 157)" fill="#868686" fill-opacity="0.9"/>
<circle r="3" transform="matrix(0 -1 -1 0 45 157)" fill="#868686" fill-opacity="0.9"/>
<circle r="3" transform="matrix(0 -1 -1 0 59 157)" fill="#868686" fill-opacity="0.9"/>
<circle r="3" transform="matrix(0 -1 -1 0 73 157)" fill="#868686" fill-opacity="0.9"/>
<circle r="3" transform="matrix(0 -1 -1 0 87 157)" fill="#868686" fill-opacity="0.9"/>
<circle r="3" transform="matrix(0 -1 -1 0 101 157)" fill="#868686" fill-opacity="0.9"/>
<circle r="3" transform="matrix(0 -1 -1 0 115 157)" fill="#868686" fill-opacity="0.9"/>
<circle r="3" transform="matrix(0 -1 -1 0 129 157)" fill="#868686" fill-opacity="0.9"/>
<circle r="3" transform="matrix(0 -1 -1 0 143 157)" fill="#868686" fill-opacity="0.9"/>
<circle r="3" transform="matrix(0 -1 -1 0 157 157)" fill="#868686" fill-opacity="0.9"/>
<circle r="3" transform="matrix(0 -1 -1 0 171 157)" fill="#868686" fill-opacity="0.9"/>
<circle r="3" transform="matrix(0 -1 -1 0 185 157)" fill="#868686" fill-opacity="0.9"/>
<circle r="3" transform="matrix(0 -1 -1 0 199 157)" fill="#868686" fill-opacity="0.9"/>
<circle r="3" transform="matrix(0 -1 -1 0 3 143)" fill="#868686" fill-opacity="0.9"/>
<circle r="3" transform="matrix(0 -1 -1 0 17 143)" fill="#868686" fill-opacity="0.9"/>
<circle r="3" transform="matrix(0 -1 -1 0 31 143)" fill="#868686" fill-opacity="0.9"/>
<circle r="3" transform="matrix(0 -1 -1 0 45 143)" fill="#868686" fill-opacity="0.9"/>
<circle r="3" transform="matrix(0 -1 -1 0 59 143)" fill="#868686" fill-opacity="0.9"/>
<circle r="3" transform="matrix(0 -1 -1 0 73 143)" fill="#868686" fill-opacity="0.9"/>
<circle r="3" transform="matrix(0 -1 -1 0 87 143)" fill="#868686" fill-opacity="0.9"/>
<circle r="3" transform="matrix(0 -1 -1 0 101 143)" fill="#868686" fill-opacity="0.9"/>
<circle r="3" transform="matrix(0 -1 -1 0 115 143)" fill="#868686" fill-opacity="0.9"/>
<circle r="3" transform="matrix(0 -1 -1 0 129 143)" fill="#868686" fill-opacity="0.9"/>
<circle r="3" transform="matrix(0 -1 -1 0 143 143)" fill="#868686" fill-opacity="0.9"/>
<circle r="3" transform="matrix(0 -1 -1 0 157 143)" fill="#868686" fill-opacity="0.9"/>
<circle r="3" transform="matrix(0 -1 -1 0 171 143)" fill="#868686" fill-opacity="0.9"/>
<circle r="3" transform="matrix(0 -1 -1 0 185 143)" fill="#868686" fill-opacity="0.9"/>
<circle r="3" transform="matrix(0 -1 -1 0 199 143)" fill="#868686" fill-opacity="0.9"/>
<circle r="3" transform="matrix(0 -1 -1 0 3 129)" fill="#868686" fill-opacity="0.9"/>
<circle r="3" transform="matrix(0 -1 -1 0 17 129)" fill="#868686" fill-opacity="0.9"/>
<circle r="3" transform="matrix(0 -1 -1 0 31 129)" fill="#868686" fill-opacity="0.9"/>
<circle r="3" transform="matrix(0 -1 -1 0 45 129)" fill="#868686" fill-opacity="0.9"/>
<circle r="3" transform="matrix(0 -1 -1 0 59 129)" fill="#868686" fill-opacity="0.9"/>
<circle r="3" transform="matrix(0 -1 -1 0 73 129)" fill="#868686" fill-opacity="0.9"/>
<circle r="3" transform="matrix(0 -1 -1 0 87 129)" fill="#868686" fill-opacity="0.9"/>
<circle r="3" transform="matrix(0 -1 -1 0 101 129)" fill="#868686" fill-opacity="0.9"/>
<circle r="3" transform="matrix(0 -1 -1 0 115 129)" fill="#868686" fill-opacity="0.9"/>
<circle r="3" transform="matrix(0 -1 -1 0 129 129)" fill="#868686" fill-opacity="0.9"/>
<circle r="3" transform="matrix(0 -1 -1 0 143 129)" fill="#868686" fill-opacity="0.9"/>
<circle r="3" transform="matrix(0 -1 -1 0 157 129)" fill="#868686" fill-opacity="0.9"/>
<circle r="3" transform="matrix(0 -1 -1 0 171 129)" fill="#868686" fill-opacity="0.9"/>
<circle r="3" transform="matrix(0 -1 -1 0 185 129)" fill="#868686" fill-opacity="0.9"/>
<circle r="3" transform="matrix(0 -1 -1 0 199 129)" fill="#868686" fill-opacity="0.9"/>
<circle r="3" transform="matrix(0 -1 -1 0 3 115)" fill="#868686" fill-opacity="0.9"/>
<circle r="3" transform="matrix(0 -1 -1 0 17 115)" fill="#868686" fill-opacity="0.9"/>
<circle r="3" transform="matrix(0 -1 -1 0 31 115)" fill="#868686" fill-opacity="0.9"/>
<circle r="3" transform="matrix(0 -1 -1 0 45 115)" fill="#868686" fill-opacity="0.9"/>
<circle r="3" transform="matrix(0 -1 -1 0 59 115)" fill="#868686" fill-opacity="0.9"/>
<circle r="3" transform="matrix(0 -1 -1 0 73 115)" fill="#868686" fill-opacity="0.9"/>
<circle r="3" transform="matrix(0 -1 -1 0 87 115)" fill="#868686" fill-opacity="0.9"/>
<circle r="3" transform="matrix(0 -1 -1 0 101 115)" fill="#868686" fill-opacity="0.9"/>
<circle r="3" transform="matrix(0 -1 -1 0 115 115)" fill="#868686" fill-opacity="0.9"/>
<circle r="3" transform="matrix(0 -1 -1 0 129 115)" fill="#868686" fill-opacity="0.9"/>
<circle r="3" transform="matrix(0 -1 -1 0 143 115)" fill="#868686" fill-opacity="0.9"/>
<circle r="3" transform="matrix(0 -1 -1 0 157 115)" fill="#868686" fill-opacity="0.9"/>
<circle r="3" transform="matrix(0 -1 -1 0 171 115)" fill="#868686" fill-opacity="0.9"/>
<circle r="3" transform="matrix(0 -1 -1 0 185 115)" fill="#868686" fill-opacity="0.9"/>
<circle r="3" transform="matrix(0 -1 -1 0 199 115)" fill="#868686" fill-opacity="0.9"/>
<circle r="3" transform="matrix(0 -1 -1 0 3 101)" fill="#868686" fill-opacity="0.9"/>
<circle r="3" transform="matrix(0 -1 -1 0 17 101)" fill="#868686" fill-opacity="0.9"/>
<circle r="3" transform="matrix(0 -1 -1 0 31 101)" fill="#868686" fill-opacity="0.9"/>
<circle r="3" transform="matrix(0 -1 -1 0 45 101)" fill="#868686" fill-opacity="0.9"/>
<circle r="3" transform="matrix(0 -1 -1 0 59 101)" fill="#868686" fill-opacity="0.9"/>
<circle r="3" transform="matrix(0 -1 -1 0 73 101)" fill="#868686" fill-opacity="0.9"/>
<circle r="3" transform="matrix(0 -1 -1 0 87 101)" fill="#868686" fill-opacity="0.9"/>
<circle r="3" transform="matrix(0 -1 -1 0 101 101)" fill="#868686" fill-opacity="0.9"/>
<circle r="3" transform="matrix(0 -1 -1 0 115 101)" fill="#868686" fill-opacity="0.9"/>
<circle r="3" transform="matrix(0 -1 -1 0 129 101)" fill="#868686" fill-opacity="0.9"/>
<circle r="3" transform="matrix(0 -1 -1 0 143 101)" fill="#868686" fill-opacity="0.9"/>
<circle r="3" transform="matrix(0 -1 -1 0 157 101)" fill="#868686" fill-opacity="0.9"/>
<circle r="3" transform="matrix(0 -1 -1 0 171 101)" fill="#868686" fill-opacity="0.9"/>
<circle r="3" transform="matrix(0 -1 -1 0 185 101)" fill="#868686" fill-opacity="0.9"/>
<circle r="3" transform="matrix(0 -1 -1 0 199 101)" fill="#868686" fill-opacity="0.9"/>
<circle r="3" transform="matrix(0 -1 -1 0 3 87)" fill="#868686" fill-opacity="0.9"/>
<circle r="3" transform="matrix(0 -1 -1 0 17 87)" fill="#868686" fill-opacity="0.9"/>
<circle r="3" transform="matrix(0 -1 -1 0 31 87)" fill="#868686" fill-opacity="0.9"/>
<circle r="3" transform="matrix(0 -1 -1 0 45 87)" fill="#868686" fill-opacity="0.9"/>
<circle r="3" transform="matrix(0 -1 -1 0 59 87)" fill="#868686" fill-opacity="0.9"/>
<circle r="3" transform="matrix(0 -1 -1 0 73 87)" fill="#868686" fill-opacity="0.9"/>
<circle r="3" transform="matrix(0 -1 -1 0 87 87)" fill="#868686" fill-opacity="0.9"/>
<circle r="3" transform="matrix(0 -1 -1 0 101 87)" fill="#868686" fill-opacity="0.9"/>
<circle r="3" transform="matrix(0 -1 -1 0 115 87)" fill="#868686" fill-opacity="0.9"/>
<circle r="3" transform="matrix(0 -1 -1 0 129 87)" fill="#868686" fill-opacity="0.9"/>
<circle r="3" transform="matrix(0 -1 -1 0 143 87)" fill="#868686" fill-opacity="0.9"/>
<circle r="3" transform="matrix(0 -1 -1 0 157 87)" fill="#868686" fill-opacity="0.9"/>
<circle r="3" transform="matrix(0 -1 -1 0 171 87)" fill="#868686" fill-opacity="0.9"/>
<circle r="3" transform="matrix(0 -1 -1 0 185 87)" fill="#868686" fill-opacity="0.9"/>
<circle r="3" transform="matrix(0 -1 -1 0 199 87)" fill="#868686" fill-opacity="0.9"/>
<circle r="3" transform="matrix(0 -1 -1 0 3 73)" fill="#868686" fill-opacity="0.9"/>
<circle r="3" transform="matrix(0 -1 -1 0 17 73)" fill="#868686" fill-opacity="0.9"/>
<circle r="3" transform="matrix(0 -1 -1 0 31 73)" fill="#868686" fill-opacity="0.9"/>
<circle r="3" transform="matrix(0 -1 -1 0 45 73)" fill="#868686" fill-opacity="0.9"/>
<circle r="3" transform="matrix(0 -1 -1 0 59 73)" fill="#868686" fill-opacity="0.9"/>
<circle r="3" transform="matrix(0 -1 -1 0 73 73)" fill="#868686" fill-opacity="0.9"/>
<circle r="3" transform="matrix(0 -1 -1 0 87 73)" fill="#868686" fill-opacity="0.9"/>
<circle r="3" transform="matrix(0 -1 -1 0 101 73)" fill="#868686" fill-opacity="0.9"/>
<circle r="3" transform="matrix(0 -1 -1 0 115 73)" fill="#868686" fill-opacity="0.9"/>
<circle r="3" transform="matrix(0 -1 -1 0 129 73)" fill="#868686" fill-opacity="0.9"/>
<circle r="3" transform="matrix(0 -1 -1 0 143 73)" fill="#868686" fill-opacity="0.9"/>
<circle r="3" transform="matrix(0 -1 -1 0 157 73)" fill="#868686" fill-opacity="0.9"/>
<circle r="3" transform="matrix(0 -1 -1 0 171 73)" fill="#868686" fill-opacity="0.9"/>
<circle r="3" transform="matrix(0 -1 -1 0 185 73)" fill="#868686" fill-opacity="0.9"/>
<circle r="3" transform="matrix(0 -1 -1 0 199 73)" fill="#868686" fill-opacity="0.9"/>
<circle r="3" transform="matrix(0 -1 -1 0 3 59)" fill="#868686" fill-opacity="0.9"/>
<circle r="3" transform="matrix(0 -1 -1 0 17 59)" fill="#868686" fill-opacity="0.9"/>
<circle r="3" transform="matrix(0 -1 -1 0 31 59)" fill="#868686" fill-opacity="0.9"/>
<circle r="3" transform="matrix(0 -1 -1 0 45 59)" fill="#868686" fill-opacity="0.9"/>
<circle r="3" transform="matrix(0 -1 -1 0 59 59)" fill="#868686" fill-opacity="0.9"/>
<circle r="3" transform="matrix(0 -1 -1 0 73 59)" fill="#868686" fill-opacity="0.9"/>
<circle r="3" transform="matrix(0 -1 -1 0 87 59)" fill="#868686" fill-opacity="0.9"/>
<circle r="3" transform="matrix(0 -1 -1 0 101 59)" fill="#868686" fill-opacity="0.9"/>
<circle r="3" transform="matrix(0 -1 -1 0 115 59)" fill="#868686" fill-opacity="0.9"/>
<circle r="3" transform="matrix(0 -1 -1 0 129 59)" fill="#868686" fill-opacity="0.9"/>
<circle r="3" transform="matrix(0 -1 -1 0 143 59)" fill="#868686" fill-opacity="0.9"/>
<circle r="3" transform="matrix(0 -1 -1 0 157 59)" fill="#868686" fill-opacity="0.9"/>
<circle r="3" transform="matrix(0 -1 -1 0 171 59)" fill="#868686" fill-opacity="0.9"/>
<circle r="3" transform="matrix(0 -1 -1 0 185 59)" fill="#868686" fill-opacity="0.9"/>
<circle r="3" transform="matrix(0 -1 -1 0 199 59)" fill="#868686" fill-opacity="0.9"/>
<circle r="3" transform="matrix(0 -1 -1 0 3 45)" fill="#868686" fill-opacity="0.9"/>
<circle r="3" transform="matrix(0 -1 -1 0 17 45)" fill="#868686" fill-opacity="0.9"/>
<circle r="3" transform="matrix(0 -1 -1 0 31 45)" fill="#868686" fill-opacity="0.9"/>
<circle r="3" transform="matrix(0 -1 -1 0 45 45)" fill="#868686" fill-opacity="0.9"/>
<circle r="3" transform="matrix(0 -1 -1 0 59 45)" fill="#868686" fill-opacity="0.9"/>
<circle r="3" transform="matrix(0 -1 -1 0 73 45)" fill="#868686" fill-opacity="0.9"/>
<circle r="3" transform="matrix(0 -1 -1 0 87 45)" fill="#868686" fill-opacity="0.9"/>
<circle r="3" transform="matrix(0 -1 -1 0 101 45)" fill="#868686" fill-opacity="0.9"/>
<circle r="3" transform="matrix(0 -1 -1 0 115 45)" fill="#868686" fill-opacity="0.9"/>
<circle r="3" transform="matrix(0 -1 -1 0 129 45)" fill="#868686" fill-opacity="0.9"/>
<circle r="3" transform="matrix(0 -1 -1 0 143 45)" fill="#868686" fill-opacity="0.9"/>
<circle r="3" transform="matrix(0 -1 -1 0 157 45)" fill="#868686" fill-opacity="0.9"/>
<circle r="3" transform="matrix(0 -1 -1 0 171 45)" fill="#868686" fill-opacity="0.9"/>
<circle r="3" transform="matrix(0 -1 -1 0 185 45)" fill="#868686" fill-opacity="0.9"/>
<circle r="3" transform="matrix(0 -1 -1 0 199 45)" fill="#868686" fill-opacity="0.9"/>
<circle r="3" transform="matrix(0 -1 -1 0 3 31)" fill="#868686" fill-opacity="0.9"/>
<circle r="3" transform="matrix(0 -1 -1 0 17 31)" fill="#868686" fill-opacity="0.9"/>
<circle r="3" transform="matrix(0 -1 -1 0 31 31)" fill="#868686" fill-opacity="0.9"/>
<circle r="3" transform="matrix(0 -1 -1 0 45 31)" fill="#868686" fill-opacity="0.9"/>
<circle r="3" transform="matrix(0 -1 -1 0 59 31)" fill="#868686" fill-opacity="0.9"/>
<circle r="3" transform="matrix(0 -1 -1 0 73 31)" fill="#868686" fill-opacity="0.9"/>
<circle r="3" transform="matrix(0 -1 -1 0 87 31)" fill="#868686" fill-opacity="0.9"/>
<circle r="3" transform="matrix(0 -1 -1 0 101 31)" fill="#868686" fill-opacity="0.9"/>
<circle r="3" transform="matrix(0 -1 -1 0 115 31)" fill="#868686" fill-opacity="0.9"/>
<circle r="3" transform="matrix(0 -1 -1 0 129 31)" fill="#868686" fill-opacity="0.9"/>
<circle r="3" transform="matrix(0 -1 -1 0 143 31)" fill="#868686" fill-opacity="0.9"/>
<circle r="3" transform="matrix(0 -1 -1 0 157 31)" fill="#868686" fill-opacity="0.9"/>
<circle r="3" transform="matrix(0 -1 -1 0 171 31)" fill="#868686" fill-opacity="0.9"/>
<circle r="3" transform="matrix(0 -1 -1 0 185 31)" fill="#868686" fill-opacity="0.9"/>
<circle r="3" transform="matrix(0 -1 -1 0 199 31)" fill="#868686" fill-opacity="0.9"/>
<circle r="3" transform="matrix(0 -1 -1 0 3 17)" fill="#868686" fill-opacity="0.9"/>
<circle r="3" transform="matrix(0 -1 -1 0 17 17)" fill="#868686" fill-opacity="0.9"/>
<circle r="3" transform="matrix(0 -1 -1 0 31 17)" fill="#868686" fill-opacity="0.9"/>
<circle r="3" transform="matrix(0 -1 -1 0 45 17)" fill="#868686" fill-opacity="0.9"/>
<circle r="3" transform="matrix(0 -1 -1 0 59 17)" fill="#868686" fill-opacity="0.9"/>
<circle r="3" transform="matrix(0 -1 -1 0 73 17)" fill="#868686" fill-opacity="0.9"/>
<circle r="3" transform="matrix(0 -1 -1 0 87 17)" fill="#868686" fill-opacity="0.9"/>
<circle r="3" transform="matrix(0 -1 -1 0 101 17)" fill="#868686" fill-opacity="0.9"/>
<circle r="3" transform="matrix(0 -1 -1 0 115 17)" fill="#868686" fill-opacity="0.9"/>
<circle r="3" transform="matrix(0 -1 -1 0 129 17)" fill="#868686" fill-opacity="0.9"/>
<circle r="3" transform="matrix(0 -1 -1 0 143 17)" fill="#868686" fill-opacity="0.9"/>
<circle r="3" transform="matrix(0 -1 -1 0 157 17)" fill="#868686" fill-opacity="0.9"/>
<circle r="3" transform="matrix(0 -1 -1 0 171 17)" fill="#868686" fill-opacity="0.9"/>
<circle r="3" transform="matrix(0 -1 -1 0 185 17)" fill="#868686" fill-opacity="0.9"/>
<circle r="3" transform="matrix(0 -1 -1 0 199 17)" fill="#868686" fill-opacity="0.9"/>
<circle r="3" transform="matrix(0 -1 -1 0 3 3)" fill="#868686" fill-opacity="0.9"/>
<circle r="3" transform="matrix(0 -1 -1 0 17 3)" fill="#868686" fill-opacity="0.9"/>
<circle r="3" transform="matrix(0 -1 -1 0 31 3)" fill="#868686" fill-opacity="0.9"/>
<circle r="3" transform="matrix(0 -1 -1 0 45 3)" fill="#868686" fill-opacity="0.9"/>
<circle r="3" transform="matrix(0 -1 -1 0 59 3)" fill="#868686" fill-opacity="0.9"/>
<circle r="3" transform="matrix(0 -1 -1 0 73 3)" fill="#868686" fill-opacity="0.9"/>
<circle r="3" transform="matrix(0 -1 -1 0 87 3)" fill="#868686" fill-opacity="0.9"/>
<circle r="3" transform="matrix(0 -1 -1 0 101 3)" fill="#868686" fill-opacity="0.9"/>
<circle r="3" transform="matrix(0 -1 -1 0 115 3)" fill="#868686" fill-opacity="0.9"/>
<circle r="3" transform="matrix(0 -1 -1 0 129 3)" fill="#868686" fill-opacity="0.9"/>
<circle r="3" transform="matrix(0 -1 -1 0 143 3)" fill="#868686" fill-opacity="0.9"/>
<circle r="3" transform="matrix(0 -1 -1 0 157 3)" fill="#868686" fill-opacity="0.9"/>
<circle r="3" transform="matrix(0 -1 -1 0 171 3)" fill="#868686" fill-opacity="0.9"/>
<circle r="3" transform="matrix(0 -1 -1 0 185 3)" fill="#868686" fill-opacity="0.9"/>
<circle r="3" transform="matrix(0 -1 -1 0 199 3)" fill="#868686" fill-opacity="0.9"/>
</g>
</svg>
