<svg width="30" height="30" viewBox="0 0 30 30" fill="none" xmlns="http://www.w3.org/2000/svg">
<path d="M15 0C6.72867 0 0 6.72867 0 15C0 23.2713 6.72867 30 15 30C23.2713 30 30 23.2713 30 15C30 6.72867 23.2713 0 15 0Z" fill="#F44336"/>
<path d="M20.524 18.7562C21.0127 19.2451 21.0127 20.035 20.524 20.5238C20.2803 20.7676 19.9603 20.8901 19.6401 20.8901C19.3201 20.8901 19.0001 20.7676 18.7564 20.5238L15.0002 16.7674L11.244 20.5238C11.0003 20.7676 10.6803 20.8901 10.3603 20.8901C10.0401 20.8901 9.72012 20.7676 9.47636 20.5238C8.9877 20.035 8.9877 19.2451 9.47636 18.7562L13.2328 15L9.47636 11.2438C8.9877 10.7549 8.9877 9.96507 9.47636 9.47618C9.96525 8.98751 10.7551 8.98751 11.244 9.47618L15.0002 13.2326L18.7564 9.47618C19.2453 8.98751 20.0351 8.98751 20.524 9.47618C21.0127 9.96507 21.0127 10.7549 20.524 11.2438L16.7676 15L20.524 18.7562Z" fill="#FAFAFA"/>
</svg>
