<?xml version="1.0" encoding="utf-8"?><svg viewBox="0 0 404 370" xmlns="http://www.w3.org/2000/svg" xmlns:xlink="http://www.w3.org/1999/xlink"><style>:root>svg{display:none}:root>svg:target{display:block}</style><svg viewBox="0 0 404 331" fill="none" id="about_decor01"><path d="M225 .5L0 330.5h183L404 .5H225z" fill="#19B2E2"/></svg><svg viewBox="0 0 210 172" fill="none" id="about_decor02"><path d="M116.955 0L0 172h95.124L210 0h-93.045z" fill="#19B2E2"/></svg><svg viewBox="0 0 27 16" fill="none" id="angle-down"><path d="M14.543 15.42L26.549 3.414c.278-.278.43-.649.43-1.044s-.152-.766-.43-1.044l-.884-.884a1.478 1.478 0 00-2.087 0L13.496 10.524 3.402.431A1.466 1.466 0 002.36 0c-.396 0-.766.153-1.044.431l-.884.884A1.465 1.465 0 000 2.36c0 .395.153.766.431 1.044L12.448 15.42c.279.278.651.431 1.047.43.397.001.77-.152 1.048-.43z" fill="#19B2E2"/></svg><svg viewBox="0 0 64 8" fill="none" id="arrow-left--blue"><path d="M7.111 8H64V5.818H7.111V8z" fill="#19B2E2"/><path d="M0 8l16.468-8v8H0z" fill="#19B2E2"/></svg><svg viewBox="0 0 64 8" fill="none" id="arrow-left--grey"><path d="M7.111 8H64V5.818H7.111V8z" fill="#787878"/><path d="M0 8l16.468-8v8H0z" fill="#787878"/></svg><svg viewBox="0 0 64 8" fill="none" id="arrow-right"><path d="M56.889 8H0V5.818h56.889V8z" fill="#fff"/><path d="M64 8L47.532 0v8H64z" fill="#fff"/></svg><svg viewBox="0 0 64 8" fill="none" id="arrow-right--blue"><path d="M56.889 8H0V5.818h56.889V8z" fill="#19B2E2"/><path d="M64 8L47.532 0v8H64z" fill="#19B2E2"/></svg><svg viewBox="0 0 64 8" fill="none" id="arrow-right--grey"><path d="M56.889 8H0V5.818h56.889V8z" fill="#828282"/><path d="M64 8L47.532 0v8H64z" fill="#828282"/></svg><svg viewBox="0 0 202 370" fill="none" id="decor_01"><g opacity=".61" fill="#868686" fill-opacity=".9"><circle r="3" transform="matrix(0 -1 -1 0 3 367)"/><circle r="3" transform="matrix(0 -1 -1 0 17 367)"/><circle r="3" transform="matrix(0 -1 -1 0 31 367)"/><circle r="3" transform="matrix(0 -1 -1 0 45 367)"/><circle r="3" transform="matrix(0 -1 -1 0 59 367)"/><circle r="3" transform="matrix(0 -1 -1 0 73 367)"/><circle r="3" transform="matrix(0 -1 -1 0 87 367)"/><circle r="3" transform="matrix(0 -1 -1 0 101 367)"/><circle r="3" transform="matrix(0 -1 -1 0 115 367)"/><circle r="3" transform="matrix(0 -1 -1 0 129 367)"/><circle r="3" transform="matrix(0 -1 -1 0 143 367)"/><circle r="3" transform="matrix(0 -1 -1 0 157 367)"/><circle r="3" transform="matrix(0 -1 -1 0 171 367)"/><circle r="3" transform="matrix(0 -1 -1 0 185 367)"/><circle r="3" transform="matrix(0 -1 -1 0 199 367)"/><circle r="3" transform="matrix(0 -1 -1 0 3 353)"/><circle r="3" transform="matrix(0 -1 -1 0 17 353)"/><circle r="3" transform="matrix(0 -1 -1 0 31 353)"/><circle r="3" transform="matrix(0 -1 -1 0 45 353)"/><circle r="3" transform="matrix(0 -1 -1 0 59 353)"/><circle r="3" transform="matrix(0 -1 -1 0 73 353)"/><circle r="3" transform="matrix(0 -1 -1 0 87 353)"/><circle r="3" transform="matrix(0 -1 -1 0 101 353)"/><circle r="3" transform="matrix(0 -1 -1 0 115 353)"/><circle r="3" transform="matrix(0 -1 -1 0 129 353)"/><circle r="3" transform="matrix(0 -1 -1 0 143 353)"/><circle r="3" transform="matrix(0 -1 -1 0 157 353)"/><circle r="3" transform="matrix(0 -1 -1 0 171 353)"/><circle r="3" transform="matrix(0 -1 -1 0 185 353)"/><circle r="3" transform="matrix(0 -1 -1 0 199 353)"/><circle r="3" transform="matrix(0 -1 -1 0 3 339)"/><circle r="3" transform="matrix(0 -1 -1 0 17 339)"/><circle r="3" transform="matrix(0 -1 -1 0 31 339)"/><circle r="3" transform="matrix(0 -1 -1 0 45 339)"/><circle r="3" transform="matrix(0 -1 -1 0 59 339)"/><circle r="3" transform="matrix(0 -1 -1 0 73 339)"/><circle r="3" transform="matrix(0 -1 -1 0 87 339)"/><circle r="3" transform="matrix(0 -1 -1 0 101 339)"/><circle r="3" transform="matrix(0 -1 -1 0 115 339)"/><circle r="3" transform="matrix(0 -1 -1 0 129 339)"/><circle r="3" transform="matrix(0 -1 -1 0 143 339)"/><circle r="3" transform="matrix(0 -1 -1 0 157 339)"/><circle r="3" transform="matrix(0 -1 -1 0 171 339)"/><circle r="3" transform="matrix(0 -1 -1 0 185 339)"/><circle r="3" transform="matrix(0 -1 -1 0 199 339)"/><circle r="3" transform="matrix(0 -1 -1 0 3 325)"/><circle r="3" transform="matrix(0 -1 -1 0 17 325)"/><circle r="3" transform="matrix(0 -1 -1 0 31 325)"/><circle r="3" transform="matrix(0 -1 -1 0 45 325)"/><circle r="3" transform="matrix(0 -1 -1 0 59 325)"/><circle r="3" transform="matrix(0 -1 -1 0 73 325)"/><circle r="3" transform="matrix(0 -1 -1 0 87 325)"/><circle r="3" transform="matrix(0 -1 -1 0 101 325)"/><circle r="3" transform="matrix(0 -1 -1 0 115 325)"/><circle r="3" transform="matrix(0 -1 -1 0 129 325)"/><circle r="3" transform="matrix(0 -1 -1 0 143 325)"/><circle r="3" transform="matrix(0 -1 -1 0 157 325)"/><circle r="3" transform="matrix(0 -1 -1 0 171 325)"/><circle r="3" transform="matrix(0 -1 -1 0 185 325)"/><circle r="3" transform="matrix(0 -1 -1 0 199 325)"/><circle r="3" transform="matrix(0 -1 -1 0 3 311)"/><circle r="3" transform="matrix(0 -1 -1 0 17 311)"/><circle r="3" transform="matrix(0 -1 -1 0 31 311)"/><circle r="3" transform="matrix(0 -1 -1 0 45 311)"/><circle r="3" transform="matrix(0 -1 -1 0 59 311)"/><circle r="3" transform="matrix(0 -1 -1 0 73 311)"/><circle r="3" transform="matrix(0 -1 -1 0 87 311)"/><circle r="3" transform="matrix(0 -1 -1 0 101 311)"/><circle r="3" transform="matrix(0 -1 -1 0 115 311)"/><circle r="3" transform="matrix(0 -1 -1 0 129 311)"/><circle r="3" transform="matrix(0 -1 -1 0 143 311)"/><circle r="3" transform="matrix(0 -1 -1 0 157 311)"/><circle r="3" transform="matrix(0 -1 -1 0 171 311)"/><circle r="3" transform="matrix(0 -1 -1 0 185 311)"/><circle r="3" transform="matrix(0 -1 -1 0 199 311)"/><circle r="3" transform="matrix(0 -1 -1 0 3 297)"/><circle r="3" transform="matrix(0 -1 -1 0 17 297)"/><circle r="3" transform="matrix(0 -1 -1 0 31 297)"/><circle r="3" transform="matrix(0 -1 -1 0 45 297)"/><circle r="3" transform="matrix(0 -1 -1 0 59 297)"/><circle r="3" transform="matrix(0 -1 -1 0 73 297)"/><circle r="3" transform="matrix(0 -1 -1 0 87 297)"/><circle r="3" transform="matrix(0 -1 -1 0 101 297)"/><circle r="3" transform="matrix(0 -1 -1 0 115 297)"/><circle r="3" transform="matrix(0 -1 -1 0 129 297)"/><circle r="3" transform="matrix(0 -1 -1 0 143 297)"/><circle r="3" transform="matrix(0 -1 -1 0 157 297)"/><circle r="3" transform="matrix(0 -1 -1 0 171 297)"/><circle r="3" transform="matrix(0 -1 -1 0 185 297)"/><circle r="3" transform="matrix(0 -1 -1 0 199 297)"/><circle r="3" transform="matrix(0 -1 -1 0 3 283)"/><circle r="3" transform="matrix(0 -1 -1 0 17 283)"/><circle r="3" transform="matrix(0 -1 -1 0 31 283)"/><circle r="3" transform="matrix(0 -1 -1 0 45 283)"/><circle r="3" transform="matrix(0 -1 -1 0 59 283)"/><circle r="3" transform="matrix(0 -1 -1 0 73 283)"/><circle r="3" transform="matrix(0 -1 -1 0 87 283)"/><circle r="3" transform="matrix(0 -1 -1 0 101 283)"/><circle r="3" transform="matrix(0 -1 -1 0 115 283)"/><circle r="3" transform="matrix(0 -1 -1 0 129 283)"/><circle r="3" transform="matrix(0 -1 -1 0 143 283)"/><circle r="3" transform="matrix(0 -1 -1 0 157 283)"/><circle r="3" transform="matrix(0 -1 -1 0 171 283)"/><circle r="3" transform="matrix(0 -1 -1 0 185 283)"/><circle r="3" transform="matrix(0 -1 -1 0 199 283)"/><circle r="3" transform="matrix(0 -1 -1 0 3 269)"/><circle r="3" transform="matrix(0 -1 -1 0 17 269)"/><circle r="3" transform="matrix(0 -1 -1 0 31 269)"/><circle r="3" transform="matrix(0 -1 -1 0 45 269)"/><circle r="3" transform="matrix(0 -1 -1 0 59 269)"/><circle r="3" transform="matrix(0 -1 -1 0 73 269)"/><circle r="3" transform="matrix(0 -1 -1 0 87 269)"/><circle r="3" transform="matrix(0 -1 -1 0 101 269)"/><circle r="3" transform="matrix(0 -1 -1 0 115 269)"/><circle r="3" transform="matrix(0 -1 -1 0 129 269)"/><circle r="3" transform="matrix(0 -1 -1 0 143 269)"/><circle r="3" transform="matrix(0 -1 -1 0 157 269)"/><circle r="3" transform="matrix(0 -1 -1 0 171 269)"/><circle r="3" transform="matrix(0 -1 -1 0 185 269)"/><circle r="3" transform="matrix(0 -1 -1 0 199 269)"/><circle r="3" transform="matrix(0 -1 -1 0 3 255)"/><circle r="3" transform="matrix(0 -1 -1 0 17 255)"/><circle r="3" transform="matrix(0 -1 -1 0 31 255)"/><circle r="3" transform="matrix(0 -1 -1 0 45 255)"/><circle r="3" transform="matrix(0 -1 -1 0 59 255)"/><circle r="3" transform="matrix(0 -1 -1 0 73 255)"/><circle r="3" transform="matrix(0 -1 -1 0 87 255)"/><circle r="3" transform="matrix(0 -1 -1 0 101 255)"/><circle r="3" transform="matrix(0 -1 -1 0 115 255)"/><circle r="3" transform="matrix(0 -1 -1 0 129 255)"/><circle r="3" transform="matrix(0 -1 -1 0 143 255)"/><circle r="3" transform="matrix(0 -1 -1 0 157 255)"/><circle r="3" transform="matrix(0 -1 -1 0 171 255)"/><circle r="3" transform="matrix(0 -1 -1 0 185 255)"/><circle r="3" transform="matrix(0 -1 -1 0 199 255)"/><circle r="3" transform="matrix(0 -1 -1 0 3 241)"/><circle r="3" transform="matrix(0 -1 -1 0 17 241)"/><circle r="3" transform="matrix(0 -1 -1 0 31 241)"/><circle r="3" transform="matrix(0 -1 -1 0 45 241)"/><circle r="3" transform="matrix(0 -1 -1 0 59 241)"/><circle r="3" transform="matrix(0 -1 -1 0 73 241)"/><circle r="3" transform="matrix(0 -1 -1 0 87 241)"/><circle r="3" transform="matrix(0 -1 -1 0 101 241)"/><circle r="3" transform="matrix(0 -1 -1 0 115 241)"/><circle r="3" transform="matrix(0 -1 -1 0 129 241)"/><circle r="3" transform="matrix(0 -1 -1 0 143 241)"/><circle r="3" transform="matrix(0 -1 -1 0 157 241)"/><circle r="3" transform="matrix(0 -1 -1 0 171 241)"/><circle r="3" transform="matrix(0 -1 -1 0 185 241)"/><circle r="3" transform="matrix(0 -1 -1 0 199 241)"/><circle r="3" transform="matrix(0 -1 -1 0 3 227)"/><circle r="3" transform="matrix(0 -1 -1 0 17 227)"/><circle r="3" transform="matrix(0 -1 -1 0 31 227)"/><circle r="3" transform="matrix(0 -1 -1 0 45 227)"/><circle r="3" transform="matrix(0 -1 -1 0 59 227)"/><circle r="3" transform="matrix(0 -1 -1 0 73 227)"/><circle r="3" transform="matrix(0 -1 -1 0 87 227)"/><circle r="3" transform="matrix(0 -1 -1 0 101 227)"/><circle r="3" transform="matrix(0 -1 -1 0 115 227)"/><circle r="3" transform="matrix(0 -1 -1 0 129 227)"/><circle r="3" transform="matrix(0 -1 -1 0 143 227)"/><circle r="3" transform="matrix(0 -1 -1 0 157 227)"/><circle r="3" transform="matrix(0 -1 -1 0 171 227)"/><circle r="3" transform="matrix(0 -1 -1 0 185 227)"/><circle r="3" transform="matrix(0 -1 -1 0 199 227)"/><circle r="3" transform="matrix(0 -1 -1 0 3 213)"/><circle r="3" transform="matrix(0 -1 -1 0 17 213)"/><circle r="3" transform="matrix(0 -1 -1 0 31 213)"/><circle r="3" transform="matrix(0 -1 -1 0 45 213)"/><circle r="3" transform="matrix(0 -1 -1 0 59 213)"/><circle r="3" transform="matrix(0 -1 -1 0 73 213)"/><circle r="3" transform="matrix(0 -1 -1 0 87 213)"/><circle r="3" transform="matrix(0 -1 -1 0 101 213)"/><circle r="3" transform="matrix(0 -1 -1 0 115 213)"/><circle r="3" transform="matrix(0 -1 -1 0 129 213)"/><circle r="3" transform="matrix(0 -1 -1 0 143 213)"/><circle r="3" transform="matrix(0 -1 -1 0 157 213)"/><circle r="3" transform="matrix(0 -1 -1 0 171 213)"/><circle r="3" transform="matrix(0 -1 -1 0 185 213)"/><circle r="3" transform="matrix(0 -1 -1 0 199 213)"/><circle r="3" transform="matrix(0 -1 -1 0 3 199)"/><circle r="3" transform="matrix(0 -1 -1 0 17 199)"/><circle r="3" transform="matrix(0 -1 -1 0 31 199)"/><circle r="3" transform="matrix(0 -1 -1 0 45 199)"/><circle r="3" transform="matrix(0 -1 -1 0 59 199)"/><circle r="3" transform="matrix(0 -1 -1 0 73 199)"/><circle r="3" transform="matrix(0 -1 -1 0 87 199)"/><circle r="3" transform="matrix(0 -1 -1 0 101 199)"/><circle r="3" transform="matrix(0 -1 -1 0 115 199)"/><circle r="3" transform="matrix(0 -1 -1 0 129 199)"/><circle r="3" transform="matrix(0 -1 -1 0 143 199)"/><circle r="3" transform="matrix(0 -1 -1 0 157 199)"/><circle r="3" transform="matrix(0 -1 -1 0 171 199)"/><circle r="3" transform="matrix(0 -1 -1 0 185 199)"/><circle r="3" transform="matrix(0 -1 -1 0 199 199)"/><circle r="3" transform="matrix(0 -1 -1 0 3 185)"/><circle r="3" transform="matrix(0 -1 -1 0 17 185)"/><circle r="3" transform="matrix(0 -1 -1 0 31 185)"/><circle r="3" transform="matrix(0 -1 -1 0 45 185)"/><circle r="3" transform="matrix(0 -1 -1 0 59 185)"/><circle r="3" transform="matrix(0 -1 -1 0 73 185)"/><circle r="3" transform="matrix(0 -1 -1 0 87 185)"/><circle r="3" transform="matrix(0 -1 -1 0 101 185)"/><circle r="3" transform="matrix(0 -1 -1 0 115 185)"/><circle r="3" transform="matrix(0 -1 -1 0 129 185)"/><circle r="3" transform="matrix(0 -1 -1 0 143 185)"/><circle r="3" transform="matrix(0 -1 -1 0 157 185)"/><circle r="3" transform="matrix(0 -1 -1 0 171 185)"/><circle r="3" transform="matrix(0 -1 -1 0 185 185)"/><circle r="3" transform="matrix(0 -1 -1 0 199 185)"/><circle r="3" transform="matrix(0 -1 -1 0 3 171)"/><circle r="3" transform="matrix(0 -1 -1 0 17 171)"/><circle r="3" transform="matrix(0 -1 -1 0 31 171)"/><circle r="3" transform="matrix(0 -1 -1 0 45 171)"/><circle r="3" transform="matrix(0 -1 -1 0 59 171)"/><circle r="3" transform="matrix(0 -1 -1 0 73 171)"/><circle r="3" transform="matrix(0 -1 -1 0 87 171)"/><circle r="3" transform="matrix(0 -1 -1 0 101 171)"/><circle r="3" transform="matrix(0 -1 -1 0 115 171)"/><circle r="3" transform="matrix(0 -1 -1 0 129 171)"/><circle r="3" transform="matrix(0 -1 -1 0 143 171)"/><circle r="3" transform="matrix(0 -1 -1 0 157 171)"/><circle r="3" transform="matrix(0 -1 -1 0 171 171)"/><circle r="3" transform="matrix(0 -1 -1 0 185 171)"/><circle r="3" transform="matrix(0 -1 -1 0 199 171)"/><circle r="3" transform="matrix(0 -1 -1 0 3 157)"/><circle r="3" transform="matrix(0 -1 -1 0 17 157)"/><circle r="3" transform="matrix(0 -1 -1 0 31 157)"/><circle r="3" transform="matrix(0 -1 -1 0 45 157)"/><circle r="3" transform="matrix(0 -1 -1 0 59 157)"/><circle r="3" transform="matrix(0 -1 -1 0 73 157)"/><circle r="3" transform="matrix(0 -1 -1 0 87 157)"/><circle r="3" transform="matrix(0 -1 -1 0 101 157)"/><circle r="3" transform="matrix(0 -1 -1 0 115 157)"/><circle r="3" transform="matrix(0 -1 -1 0 129 157)"/><circle r="3" transform="matrix(0 -1 -1 0 143 157)"/><circle r="3" transform="matrix(0 -1 -1 0 157 157)"/><circle r="3" transform="matrix(0 -1 -1 0 171 157)"/><circle r="3" transform="matrix(0 -1 -1 0 185 157)"/><circle r="3" transform="matrix(0 -1 -1 0 199 157)"/><circle r="3" transform="matrix(0 -1 -1 0 3 143)"/><circle r="3" transform="matrix(0 -1 -1 0 17 143)"/><circle r="3" transform="matrix(0 -1 -1 0 31 143)"/><circle r="3" transform="matrix(0 -1 -1 0 45 143)"/><circle r="3" transform="matrix(0 -1 -1 0 59 143)"/><circle r="3" transform="matrix(0 -1 -1 0 73 143)"/><circle r="3" transform="matrix(0 -1 -1 0 87 143)"/><circle r="3" transform="matrix(0 -1 -1 0 101 143)"/><circle r="3" transform="matrix(0 -1 -1 0 115 143)"/><circle r="3" transform="matrix(0 -1 -1 0 129 143)"/><circle r="3" transform="matrix(0 -1 -1 0 143 143)"/><circle r="3" transform="matrix(0 -1 -1 0 157 143)"/><circle r="3" transform="matrix(0 -1 -1 0 171 143)"/><circle r="3" transform="matrix(0 -1 -1 0 185 143)"/><circle r="3" transform="matrix(0 -1 -1 0 199 143)"/><circle r="3" transform="matrix(0 -1 -1 0 3 129)"/><circle r="3" transform="matrix(0 -1 -1 0 17 129)"/><circle r="3" transform="matrix(0 -1 -1 0 31 129)"/><circle r="3" transform="matrix(0 -1 -1 0 45 129)"/><circle r="3" transform="matrix(0 -1 -1 0 59 129)"/><circle r="3" transform="matrix(0 -1 -1 0 73 129)"/><circle r="3" transform="matrix(0 -1 -1 0 87 129)"/><circle r="3" transform="matrix(0 -1 -1 0 101 129)"/><circle r="3" transform="matrix(0 -1 -1 0 115 129)"/><circle r="3" transform="matrix(0 -1 -1 0 129 129)"/><circle r="3" transform="matrix(0 -1 -1 0 143 129)"/><circle r="3" transform="matrix(0 -1 -1 0 157 129)"/><circle r="3" transform="matrix(0 -1 -1 0 171 129)"/><circle r="3" transform="matrix(0 -1 -1 0 185 129)"/><circle r="3" transform="matrix(0 -1 -1 0 199 129)"/><circle r="3" transform="matrix(0 -1 -1 0 3 115)"/><circle r="3" transform="matrix(0 -1 -1 0 17 115)"/><circle r="3" transform="matrix(0 -1 -1 0 31 115)"/><circle r="3" transform="matrix(0 -1 -1 0 45 115)"/><circle r="3" transform="matrix(0 -1 -1 0 59 115)"/><circle r="3" transform="matrix(0 -1 -1 0 73 115)"/><circle r="3" transform="matrix(0 -1 -1 0 87 115)"/><circle r="3" transform="matrix(0 -1 -1 0 101 115)"/><circle r="3" transform="matrix(0 -1 -1 0 115 115)"/><circle r="3" transform="matrix(0 -1 -1 0 129 115)"/><circle r="3" transform="matrix(0 -1 -1 0 143 115)"/><circle r="3" transform="matrix(0 -1 -1 0 157 115)"/><circle r="3" transform="matrix(0 -1 -1 0 171 115)"/><circle r="3" transform="matrix(0 -1 -1 0 185 115)"/><circle r="3" transform="matrix(0 -1 -1 0 199 115)"/><circle r="3" transform="matrix(0 -1 -1 0 3 101)"/><circle r="3" transform="matrix(0 -1 -1 0 17 101)"/><circle r="3" transform="matrix(0 -1 -1 0 31 101)"/><circle r="3" transform="matrix(0 -1 -1 0 45 101)"/><circle r="3" transform="matrix(0 -1 -1 0 59 101)"/><circle r="3" transform="matrix(0 -1 -1 0 73 101)"/><circle r="3" transform="matrix(0 -1 -1 0 87 101)"/><circle r="3" transform="matrix(0 -1 -1 0 101 101)"/><circle r="3" transform="matrix(0 -1 -1 0 115 101)"/><circle r="3" transform="matrix(0 -1 -1 0 129 101)"/><circle r="3" transform="matrix(0 -1 -1 0 143 101)"/><circle r="3" transform="matrix(0 -1 -1 0 157 101)"/><circle r="3" transform="matrix(0 -1 -1 0 171 101)"/><circle r="3" transform="matrix(0 -1 -1 0 185 101)"/><circle r="3" transform="matrix(0 -1 -1 0 199 101)"/><circle r="3" transform="matrix(0 -1 -1 0 3 87)"/><circle r="3" transform="matrix(0 -1 -1 0 17 87)"/><circle r="3" transform="matrix(0 -1 -1 0 31 87)"/><circle r="3" transform="matrix(0 -1 -1 0 45 87)"/><circle r="3" transform="matrix(0 -1 -1 0 59 87)"/><circle r="3" transform="matrix(0 -1 -1 0 73 87)"/><circle r="3" transform="matrix(0 -1 -1 0 87 87)"/><circle r="3" transform="matrix(0 -1 -1 0 101 87)"/><circle r="3" transform="matrix(0 -1 -1 0 115 87)"/><circle r="3" transform="matrix(0 -1 -1 0 129 87)"/><circle r="3" transform="matrix(0 -1 -1 0 143 87)"/><circle r="3" transform="matrix(0 -1 -1 0 157 87)"/><circle r="3" transform="matrix(0 -1 -1 0 171 87)"/><circle r="3" transform="matrix(0 -1 -1 0 185 87)"/><circle r="3" transform="matrix(0 -1 -1 0 199 87)"/><circle r="3" transform="matrix(0 -1 -1 0 3 73)"/><circle r="3" transform="matrix(0 -1 -1 0 17 73)"/><circle r="3" transform="matrix(0 -1 -1 0 31 73)"/><circle r="3" transform="matrix(0 -1 -1 0 45 73)"/><circle r="3" transform="matrix(0 -1 -1 0 59 73)"/><circle r="3" transform="matrix(0 -1 -1 0 73 73)"/><circle r="3" transform="matrix(0 -1 -1 0 87 73)"/><circle r="3" transform="matrix(0 -1 -1 0 101 73)"/><circle r="3" transform="matrix(0 -1 -1 0 115 73)"/><circle r="3" transform="matrix(0 -1 -1 0 129 73)"/><circle r="3" transform="matrix(0 -1 -1 0 143 73)"/><circle r="3" transform="matrix(0 -1 -1 0 157 73)"/><circle r="3" transform="matrix(0 -1 -1 0 171 73)"/><circle r="3" transform="matrix(0 -1 -1 0 185 73)"/><circle r="3" transform="matrix(0 -1 -1 0 199 73)"/><circle r="3" transform="matrix(0 -1 -1 0 3 59)"/><circle r="3" transform="matrix(0 -1 -1 0 17 59)"/><circle r="3" transform="matrix(0 -1 -1 0 31 59)"/><circle r="3" transform="matrix(0 -1 -1 0 45 59)"/><circle r="3" transform="matrix(0 -1 -1 0 59 59)"/><circle r="3" transform="matrix(0 -1 -1 0 73 59)"/><circle r="3" transform="matrix(0 -1 -1 0 87 59)"/><circle r="3" transform="matrix(0 -1 -1 0 101 59)"/><circle r="3" transform="matrix(0 -1 -1 0 115 59)"/><circle r="3" transform="matrix(0 -1 -1 0 129 59)"/><circle r="3" transform="matrix(0 -1 -1 0 143 59)"/><circle r="3" transform="matrix(0 -1 -1 0 157 59)"/><circle r="3" transform="matrix(0 -1 -1 0 171 59)"/><circle r="3" transform="matrix(0 -1 -1 0 185 59)"/><circle r="3" transform="matrix(0 -1 -1 0 199 59)"/><circle r="3" transform="matrix(0 -1 -1 0 3 45)"/><circle r="3" transform="matrix(0 -1 -1 0 17 45)"/><circle r="3" transform="matrix(0 -1 -1 0 31 45)"/><circle r="3" transform="matrix(0 -1 -1 0 45 45)"/><circle r="3" transform="matrix(0 -1 -1 0 59 45)"/><circle r="3" transform="matrix(0 -1 -1 0 73 45)"/><circle r="3" transform="matrix(0 -1 -1 0 87 45)"/><circle r="3" transform="matrix(0 -1 -1 0 101 45)"/><circle r="3" transform="matrix(0 -1 -1 0 115 45)"/><circle r="3" transform="matrix(0 -1 -1 0 129 45)"/><circle r="3" transform="matrix(0 -1 -1 0 143 45)"/><circle r="3" transform="matrix(0 -1 -1 0 157 45)"/><circle r="3" transform="matrix(0 -1 -1 0 171 45)"/><circle r="3" transform="matrix(0 -1 -1 0 185 45)"/><circle r="3" transform="matrix(0 -1 -1 0 199 45)"/><circle r="3" transform="matrix(0 -1 -1 0 3 31)"/><circle r="3" transform="matrix(0 -1 -1 0 17 31)"/><circle r="3" transform="matrix(0 -1 -1 0 31 31)"/><circle r="3" transform="matrix(0 -1 -1 0 45 31)"/><circle r="3" transform="matrix(0 -1 -1 0 59 31)"/><circle r="3" transform="matrix(0 -1 -1 0 73 31)"/><circle r="3" transform="matrix(0 -1 -1 0 87 31)"/><circle r="3" transform="matrix(0 -1 -1 0 101 31)"/><circle r="3" transform="matrix(0 -1 -1 0 115 31)"/><circle r="3" transform="matrix(0 -1 -1 0 129 31)"/><circle r="3" transform="matrix(0 -1 -1 0 143 31)"/><circle r="3" transform="matrix(0 -1 -1 0 157 31)"/><circle r="3" transform="matrix(0 -1 -1 0 171 31)"/><circle r="3" transform="matrix(0 -1 -1 0 185 31)"/><circle r="3" transform="matrix(0 -1 -1 0 199 31)"/><circle r="3" transform="matrix(0 -1 -1 0 3 17)"/><circle r="3" transform="matrix(0 -1 -1 0 17 17)"/><circle r="3" transform="matrix(0 -1 -1 0 31 17)"/><circle r="3" transform="matrix(0 -1 -1 0 45 17)"/><circle r="3" transform="matrix(0 -1 -1 0 59 17)"/><circle r="3" transform="matrix(0 -1 -1 0 73 17)"/><circle r="3" transform="matrix(0 -1 -1 0 87 17)"/><circle r="3" transform="matrix(0 -1 -1 0 101 17)"/><circle r="3" transform="matrix(0 -1 -1 0 115 17)"/><circle r="3" transform="matrix(0 -1 -1 0 129 17)"/><circle r="3" transform="matrix(0 -1 -1 0 143 17)"/><circle r="3" transform="matrix(0 -1 -1 0 157 17)"/><circle r="3" transform="matrix(0 -1 -1 0 171 17)"/><circle r="3" transform="matrix(0 -1 -1 0 185 17)"/><circle r="3" transform="matrix(0 -1 -1 0 199 17)"/><circle r="3" transform="matrix(0 -1 -1 0 3 3)"/><circle r="3" transform="matrix(0 -1 -1 0 17 3)"/><circle r="3" transform="matrix(0 -1 -1 0 31 3)"/><circle r="3" transform="matrix(0 -1 -1 0 45 3)"/><circle r="3" transform="matrix(0 -1 -1 0 59 3)"/><circle r="3" transform="matrix(0 -1 -1 0 73 3)"/><circle r="3" transform="matrix(0 -1 -1 0 87 3)"/><circle r="3" transform="matrix(0 -1 -1 0 101 3)"/><circle r="3" transform="matrix(0 -1 -1 0 115 3)"/><circle r="3" transform="matrix(0 -1 -1 0 129 3)"/><circle r="3" transform="matrix(0 -1 -1 0 143 3)"/><circle r="3" transform="matrix(0 -1 -1 0 157 3)"/><circle r="3" transform="matrix(0 -1 -1 0 171 3)"/><circle r="3" transform="matrix(0 -1 -1 0 185 3)"/><circle r="3" transform="matrix(0 -1 -1 0 199 3)"/></g></svg><svg viewBox="0 0 370 202" fill="none" id="decor_02"><g opacity=".6" fill="#868686" fill-opacity=".9"><circle r="3" transform="matrix(1 0 0 -1 3 3)"/><circle r="3" transform="matrix(1 0 0 -1 3 17)"/><circle r="3" transform="matrix(1 0 0 -1 3 31)"/><circle r="3" transform="matrix(1 0 0 -1 3 45)"/><circle r="3" transform="matrix(1 0 0 -1 3 59)"/><circle r="3" transform="matrix(1 0 0 -1 3 73)"/><circle r="3" transform="matrix(1 0 0 -1 3 87)"/><circle r="3" transform="matrix(1 0 0 -1 3 101)"/><circle r="3" transform="matrix(1 0 0 -1 3 115)"/><circle r="3" transform="matrix(1 0 0 -1 3 129)"/><circle r="3" transform="matrix(1 0 0 -1 3 143)"/><circle r="3" transform="matrix(1 0 0 -1 3 157)"/><circle r="3" transform="matrix(1 0 0 -1 3 171)"/><circle r="3" transform="matrix(1 0 0 -1 3 185)"/><circle r="3" transform="matrix(1 0 0 -1 3 199)"/><circle r="3" transform="matrix(1 0 0 -1 17 3)"/><circle r="3" transform="matrix(1 0 0 -1 17 17)"/><circle r="3" transform="matrix(1 0 0 -1 17 31)"/><circle r="3" transform="matrix(1 0 0 -1 17 45)"/><circle r="3" transform="matrix(1 0 0 -1 17 59)"/><circle r="3" transform="matrix(1 0 0 -1 17 73)"/><circle r="3" transform="matrix(1 0 0 -1 17 87)"/><circle r="3" transform="matrix(1 0 0 -1 17 101)"/><circle r="3" transform="matrix(1 0 0 -1 17 115)"/><circle r="3" transform="matrix(1 0 0 -1 17 129)"/><circle r="3" transform="matrix(1 0 0 -1 17 143)"/><circle r="3" transform="matrix(1 0 0 -1 17 157)"/><circle r="3" transform="matrix(1 0 0 -1 17 171)"/><circle r="3" transform="matrix(1 0 0 -1 17 185)"/><circle r="3" transform="matrix(1 0 0 -1 17 199)"/><circle r="3" transform="matrix(1 0 0 -1 31 3)"/><circle r="3" transform="matrix(1 0 0 -1 31 17)"/><circle r="3" transform="matrix(1 0 0 -1 31 31)"/><circle r="3" transform="matrix(1 0 0 -1 31 45)"/><circle r="3" transform="matrix(1 0 0 -1 31 59)"/><circle r="3" transform="matrix(1 0 0 -1 31 73)"/><circle r="3" transform="matrix(1 0 0 -1 31 87)"/><circle r="3" transform="matrix(1 0 0 -1 31 101)"/><circle r="3" transform="matrix(1 0 0 -1 31 115)"/><circle r="3" transform="matrix(1 0 0 -1 31 129)"/><circle r="3" transform="matrix(1 0 0 -1 31 143)"/><circle r="3" transform="matrix(1 0 0 -1 31 157)"/><circle r="3" transform="matrix(1 0 0 -1 31 171)"/><circle r="3" transform="matrix(1 0 0 -1 31 185)"/><circle r="3" transform="matrix(1 0 0 -1 31 199)"/><circle r="3" transform="matrix(1 0 0 -1 45 3)"/><circle r="3" transform="matrix(1 0 0 -1 45 17)"/><circle r="3" transform="matrix(1 0 0 -1 45 31)"/><circle r="3" transform="matrix(1 0 0 -1 45 45)"/><circle r="3" transform="matrix(1 0 0 -1 45 59)"/><circle r="3" transform="matrix(1 0 0 -1 45 73)"/><circle r="3" transform="matrix(1 0 0 -1 45 87)"/><circle r="3" transform="matrix(1 0 0 -1 45 101)"/><circle r="3" transform="matrix(1 0 0 -1 45 115)"/><circle r="3" transform="matrix(1 0 0 -1 45 129)"/><circle r="3" transform="matrix(1 0 0 -1 45 143)"/><circle r="3" transform="matrix(1 0 0 -1 45 157)"/><circle r="3" transform="matrix(1 0 0 -1 45 171)"/><circle r="3" transform="matrix(1 0 0 -1 45 185)"/><circle r="3" transform="matrix(1 0 0 -1 45 199)"/><circle r="3" transform="matrix(1 0 0 -1 59 3)"/><circle r="3" transform="matrix(1 0 0 -1 59 17)"/><circle r="3" transform="matrix(1 0 0 -1 59 31)"/><circle r="3" transform="matrix(1 0 0 -1 59 45)"/><circle r="3" transform="matrix(1 0 0 -1 59 59)"/><circle r="3" transform="matrix(1 0 0 -1 59 73)"/><circle r="3" transform="matrix(1 0 0 -1 59 87)"/><circle r="3" transform="matrix(1 0 0 -1 59 101)"/><circle r="3" transform="matrix(1 0 0 -1 59 115)"/><circle r="3" transform="matrix(1 0 0 -1 59 129)"/><circle r="3" transform="matrix(1 0 0 -1 59 143)"/><circle r="3" transform="matrix(1 0 0 -1 59 157)"/><circle r="3" transform="matrix(1 0 0 -1 59 171)"/><circle r="3" transform="matrix(1 0 0 -1 59 185)"/><circle r="3" transform="matrix(1 0 0 -1 59 199)"/><circle r="3" transform="matrix(1 0 0 -1 73 3)"/><circle r="3" transform="matrix(1 0 0 -1 73 17)"/><circle r="3" transform="matrix(1 0 0 -1 73 31)"/><circle r="3" transform="matrix(1 0 0 -1 73 45)"/><circle r="3" transform="matrix(1 0 0 -1 73 59)"/><circle r="3" transform="matrix(1 0 0 -1 73 73)"/><circle r="3" transform="matrix(1 0 0 -1 73 87)"/><circle r="3" transform="matrix(1 0 0 -1 73 101)"/><circle r="3" transform="matrix(1 0 0 -1 73 115)"/><circle r="3" transform="matrix(1 0 0 -1 73 129)"/><circle r="3" transform="matrix(1 0 0 -1 73 143)"/><circle r="3" transform="matrix(1 0 0 -1 73 157)"/><circle r="3" transform="matrix(1 0 0 -1 73 171)"/><circle r="3" transform="matrix(1 0 0 -1 73 185)"/><circle r="3" transform="matrix(1 0 0 -1 73 199)"/><circle r="3" transform="matrix(1 0 0 -1 87 3)"/><circle r="3" transform="matrix(1 0 0 -1 87 17)"/><circle r="3" transform="matrix(1 0 0 -1 87 31)"/><circle r="3" transform="matrix(1 0 0 -1 87 45)"/><circle r="3" transform="matrix(1 0 0 -1 87 59)"/><circle r="3" transform="matrix(1 0 0 -1 87 73)"/><circle r="3" transform="matrix(1 0 0 -1 87 87)"/><circle r="3" transform="matrix(1 0 0 -1 87 101)"/><circle r="3" transform="matrix(1 0 0 -1 87 115)"/><circle r="3" transform="matrix(1 0 0 -1 87 129)"/><circle r="3" transform="matrix(1 0 0 -1 87 143)"/><circle r="3" transform="matrix(1 0 0 -1 87 157)"/><circle r="3" transform="matrix(1 0 0 -1 87 171)"/><circle r="3" transform="matrix(1 0 0 -1 87 185)"/><circle r="3" transform="matrix(1 0 0 -1 87 199)"/><circle r="3" transform="matrix(1 0 0 -1 101 3)"/><circle r="3" transform="matrix(1 0 0 -1 101 17)"/><circle r="3" transform="matrix(1 0 0 -1 101 31)"/><circle r="3" transform="matrix(1 0 0 -1 101 45)"/><circle r="3" transform="matrix(1 0 0 -1 101 59)"/><circle r="3" transform="matrix(1 0 0 -1 101 73)"/><circle r="3" transform="matrix(1 0 0 -1 101 87)"/><circle r="3" transform="matrix(1 0 0 -1 101 101)"/><circle r="3" transform="matrix(1 0 0 -1 101 115)"/><circle r="3" transform="matrix(1 0 0 -1 101 129)"/><circle r="3" transform="matrix(1 0 0 -1 101 143)"/><circle r="3" transform="matrix(1 0 0 -1 101 157)"/><circle r="3" transform="matrix(1 0 0 -1 101 171)"/><circle r="3" transform="matrix(1 0 0 -1 101 185)"/><circle r="3" transform="matrix(1 0 0 -1 101 199)"/><circle r="3" transform="matrix(1 0 0 -1 115 3)"/><circle r="3" transform="matrix(1 0 0 -1 115 17)"/><circle r="3" transform="matrix(1 0 0 -1 115 31)"/><circle r="3" transform="matrix(1 0 0 -1 115 45)"/><circle r="3" transform="matrix(1 0 0 -1 115 59)"/><circle r="3" transform="matrix(1 0 0 -1 115 73)"/><circle r="3" transform="matrix(1 0 0 -1 115 87)"/><circle r="3" transform="matrix(1 0 0 -1 115 101)"/><circle r="3" transform="matrix(1 0 0 -1 115 115)"/><circle r="3" transform="matrix(1 0 0 -1 115 129)"/><circle r="3" transform="matrix(1 0 0 -1 115 143)"/><circle r="3" transform="matrix(1 0 0 -1 115 157)"/><circle r="3" transform="matrix(1 0 0 -1 115 171)"/><circle r="3" transform="matrix(1 0 0 -1 115 185)"/><circle r="3" transform="matrix(1 0 0 -1 115 199)"/><circle r="3" transform="matrix(1 0 0 -1 129 3)"/><circle r="3" transform="matrix(1 0 0 -1 129 17)"/><circle r="3" transform="matrix(1 0 0 -1 129 31)"/><circle r="3" transform="matrix(1 0 0 -1 129 45)"/><circle r="3" transform="matrix(1 0 0 -1 129 59)"/><circle r="3" transform="matrix(1 0 0 -1 129 73)"/><circle r="3" transform="matrix(1 0 0 -1 129 87)"/><circle r="3" transform="matrix(1 0 0 -1 129 101)"/><circle r="3" transform="matrix(1 0 0 -1 129 115)"/><circle r="3" transform="matrix(1 0 0 -1 129 129)"/><circle r="3" transform="matrix(1 0 0 -1 129 143)"/><circle r="3" transform="matrix(1 0 0 -1 129 157)"/><circle r="3" transform="matrix(1 0 0 -1 129 171)"/><circle r="3" transform="matrix(1 0 0 -1 129 185)"/><circle r="3" transform="matrix(1 0 0 -1 129 199)"/><circle r="3" transform="matrix(1 0 0 -1 143 3)"/><circle r="3" transform="matrix(1 0 0 -1 143 17)"/><circle r="3" transform="matrix(1 0 0 -1 143 31)"/><circle r="3" transform="matrix(1 0 0 -1 143 45)"/><circle r="3" transform="matrix(1 0 0 -1 143 59)"/><circle r="3" transform="matrix(1 0 0 -1 143 73)"/><circle r="3" transform="matrix(1 0 0 -1 143 87)"/><circle r="3" transform="matrix(1 0 0 -1 143 101)"/><circle r="3" transform="matrix(1 0 0 -1 143 115)"/><circle r="3" transform="matrix(1 0 0 -1 143 129)"/><circle r="3" transform="matrix(1 0 0 -1 143 143)"/><circle r="3" transform="matrix(1 0 0 -1 143 157)"/><circle r="3" transform="matrix(1 0 0 -1 143 171)"/><circle r="3" transform="matrix(1 0 0 -1 143 185)"/><circle r="3" transform="matrix(1 0 0 -1 143 199)"/><circle r="3" transform="matrix(1 0 0 -1 157 3)"/><circle r="3" transform="matrix(1 0 0 -1 157 17)"/><circle r="3" transform="matrix(1 0 0 -1 157 31)"/><circle r="3" transform="matrix(1 0 0 -1 157 45)"/><circle r="3" transform="matrix(1 0 0 -1 157 59)"/><circle r="3" transform="matrix(1 0 0 -1 157 73)"/><circle r="3" transform="matrix(1 0 0 -1 157 87)"/><circle r="3" transform="matrix(1 0 0 -1 157 101)"/><circle r="3" transform="matrix(1 0 0 -1 157 115)"/><circle r="3" transform="matrix(1 0 0 -1 157 129)"/><circle r="3" transform="matrix(1 0 0 -1 157 143)"/><circle r="3" transform="matrix(1 0 0 -1 157 157)"/><circle r="3" transform="matrix(1 0 0 -1 157 171)"/><circle r="3" transform="matrix(1 0 0 -1 157 185)"/><circle r="3" transform="matrix(1 0 0 -1 157 199)"/><circle r="3" transform="matrix(1 0 0 -1 171 3)"/><circle r="3" transform="matrix(1 0 0 -1 171 17)"/><circle r="3" transform="matrix(1 0 0 -1 171 31)"/><circle r="3" transform="matrix(1 0 0 -1 171 45)"/><circle r="3" transform="matrix(1 0 0 -1 171 59)"/><circle r="3" transform="matrix(1 0 0 -1 171 73)"/><circle r="3" transform="matrix(1 0 0 -1 171 87)"/><circle r="3" transform="matrix(1 0 0 -1 171 101)"/><circle r="3" transform="matrix(1 0 0 -1 171 115)"/><circle r="3" transform="matrix(1 0 0 -1 171 129)"/><circle r="3" transform="matrix(1 0 0 -1 171 143)"/><circle r="3" transform="matrix(1 0 0 -1 171 157)"/><circle r="3" transform="matrix(1 0 0 -1 171 171)"/><circle r="3" transform="matrix(1 0 0 -1 171 185)"/><circle r="3" transform="matrix(1 0 0 -1 171 199)"/><circle r="3" transform="matrix(1 0 0 -1 185 3)"/><circle r="3" transform="matrix(1 0 0 -1 185 17)"/><circle r="3" transform="matrix(1 0 0 -1 185 31)"/><circle r="3" transform="matrix(1 0 0 -1 185 45)"/><circle r="3" transform="matrix(1 0 0 -1 185 59)"/><circle r="3" transform="matrix(1 0 0 -1 185 73)"/><circle r="3" transform="matrix(1 0 0 -1 185 87)"/><circle r="3" transform="matrix(1 0 0 -1 185 101)"/><circle r="3" transform="matrix(1 0 0 -1 185 115)"/><circle r="3" transform="matrix(1 0 0 -1 185 129)"/><circle r="3" transform="matrix(1 0 0 -1 185 143)"/><circle r="3" transform="matrix(1 0 0 -1 185 157)"/><circle r="3" transform="matrix(1 0 0 -1 185 171)"/><circle r="3" transform="matrix(1 0 0 -1 185 185)"/><circle r="3" transform="matrix(1 0 0 -1 185 199)"/><circle r="3" transform="matrix(1 0 0 -1 199 3)"/><circle r="3" transform="matrix(1 0 0 -1 199 17)"/><circle r="3" transform="matrix(1 0 0 -1 199 31)"/><circle r="3" transform="matrix(1 0 0 -1 199 45)"/><circle r="3" transform="matrix(1 0 0 -1 199 59)"/><circle r="3" transform="matrix(1 0 0 -1 199 73)"/><circle r="3" transform="matrix(1 0 0 -1 199 87)"/><circle r="3" transform="matrix(1 0 0 -1 199 101)"/><circle r="3" transform="matrix(1 0 0 -1 199 115)"/><circle r="3" transform="matrix(1 0 0 -1 199 129)"/><circle r="3" transform="matrix(1 0 0 -1 199 143)"/><circle r="3" transform="matrix(1 0 0 -1 199 157)"/><circle r="3" transform="matrix(1 0 0 -1 199 171)"/><circle r="3" transform="matrix(1 0 0 -1 199 185)"/><circle r="3" transform="matrix(1 0 0 -1 199 199)"/><circle r="3" transform="matrix(1 0 0 -1 213 3)"/><circle r="3" transform="matrix(1 0 0 -1 213 17)"/><circle r="3" transform="matrix(1 0 0 -1 213 31)"/><circle r="3" transform="matrix(1 0 0 -1 213 45)"/><circle r="3" transform="matrix(1 0 0 -1 213 59)"/><circle r="3" transform="matrix(1 0 0 -1 213 73)"/><circle r="3" transform="matrix(1 0 0 -1 213 87)"/><circle r="3" transform="matrix(1 0 0 -1 213 101)"/><circle r="3" transform="matrix(1 0 0 -1 213 115)"/><circle r="3" transform="matrix(1 0 0 -1 213 129)"/><circle r="3" transform="matrix(1 0 0 -1 213 143)"/><circle r="3" transform="matrix(1 0 0 -1 213 157)"/><circle r="3" transform="matrix(1 0 0 -1 213 171)"/><circle r="3" transform="matrix(1 0 0 -1 213 185)"/><circle r="3" transform="matrix(1 0 0 -1 213 199)"/><circle r="3" transform="matrix(1 0 0 -1 227 3)"/><circle r="3" transform="matrix(1 0 0 -1 227 17)"/><circle r="3" transform="matrix(1 0 0 -1 227 31)"/><circle r="3" transform="matrix(1 0 0 -1 227 45)"/><circle r="3" transform="matrix(1 0 0 -1 227 59)"/><circle r="3" transform="matrix(1 0 0 -1 227 73)"/><circle r="3" transform="matrix(1 0 0 -1 227 87)"/><circle r="3" transform="matrix(1 0 0 -1 227 101)"/><circle r="3" transform="matrix(1 0 0 -1 227 115)"/><circle r="3" transform="matrix(1 0 0 -1 227 129)"/><circle r="3" transform="matrix(1 0 0 -1 227 143)"/><circle r="3" transform="matrix(1 0 0 -1 227 157)"/><circle r="3" transform="matrix(1 0 0 -1 227 171)"/><circle r="3" transform="matrix(1 0 0 -1 227 185)"/><circle r="3" transform="matrix(1 0 0 -1 227 199)"/><circle r="3" transform="matrix(1 0 0 -1 241 3)"/><circle r="3" transform="matrix(1 0 0 -1 241 17)"/><circle r="3" transform="matrix(1 0 0 -1 241 31)"/><circle r="3" transform="matrix(1 0 0 -1 241 45)"/><circle r="3" transform="matrix(1 0 0 -1 241 59)"/><circle r="3" transform="matrix(1 0 0 -1 241 73)"/><circle r="3" transform="matrix(1 0 0 -1 241 87)"/><circle r="3" transform="matrix(1 0 0 -1 241 101)"/><circle r="3" transform="matrix(1 0 0 -1 241 115)"/><circle r="3" transform="matrix(1 0 0 -1 241 129)"/><circle r="3" transform="matrix(1 0 0 -1 241 143)"/><circle r="3" transform="matrix(1 0 0 -1 241 157)"/><circle r="3" transform="matrix(1 0 0 -1 241 171)"/><circle r="3" transform="matrix(1 0 0 -1 241 185)"/><circle r="3" transform="matrix(1 0 0 -1 241 199)"/><circle r="3" transform="matrix(1 0 0 -1 255 3)"/><circle r="3" transform="matrix(1 0 0 -1 255 17)"/><circle r="3" transform="matrix(1 0 0 -1 255 31)"/><circle r="3" transform="matrix(1 0 0 -1 255 45)"/><circle r="3" transform="matrix(1 0 0 -1 255 59)"/><circle r="3" transform="matrix(1 0 0 -1 255 73)"/><circle r="3" transform="matrix(1 0 0 -1 255 87)"/><circle r="3" transform="matrix(1 0 0 -1 255 101)"/><circle r="3" transform="matrix(1 0 0 -1 255 115)"/><circle r="3" transform="matrix(1 0 0 -1 255 129)"/><circle r="3" transform="matrix(1 0 0 -1 255 143)"/><circle r="3" transform="matrix(1 0 0 -1 255 157)"/><circle r="3" transform="matrix(1 0 0 -1 255 171)"/><circle r="3" transform="matrix(1 0 0 -1 255 185)"/><circle r="3" transform="matrix(1 0 0 -1 255 199)"/><circle r="3" transform="matrix(1 0 0 -1 269 3)"/><circle r="3" transform="matrix(1 0 0 -1 269 17)"/><circle r="3" transform="matrix(1 0 0 -1 269 31)"/><circle r="3" transform="matrix(1 0 0 -1 269 45)"/><circle r="3" transform="matrix(1 0 0 -1 269 59)"/><circle r="3" transform="matrix(1 0 0 -1 269 73)"/><circle r="3" transform="matrix(1 0 0 -1 269 87)"/><circle r="3" transform="matrix(1 0 0 -1 269 101)"/><circle r="3" transform="matrix(1 0 0 -1 269 115)"/><circle r="3" transform="matrix(1 0 0 -1 269 129)"/><circle r="3" transform="matrix(1 0 0 -1 269 143)"/><circle r="3" transform="matrix(1 0 0 -1 269 157)"/><circle r="3" transform="matrix(1 0 0 -1 269 171)"/><circle r="3" transform="matrix(1 0 0 -1 269 185)"/><circle r="3" transform="matrix(1 0 0 -1 269 199)"/><circle r="3" transform="matrix(1 0 0 -1 283 3)"/><circle r="3" transform="matrix(1 0 0 -1 283 17)"/><circle r="3" transform="matrix(1 0 0 -1 283 31)"/><circle r="3" transform="matrix(1 0 0 -1 283 45)"/><circle r="3" transform="matrix(1 0 0 -1 283 59)"/><circle r="3" transform="matrix(1 0 0 -1 283 73)"/><circle r="3" transform="matrix(1 0 0 -1 283 87)"/><circle r="3" transform="matrix(1 0 0 -1 283 101)"/><circle r="3" transform="matrix(1 0 0 -1 283 115)"/><circle r="3" transform="matrix(1 0 0 -1 283 129)"/><circle r="3" transform="matrix(1 0 0 -1 283 143)"/><circle r="3" transform="matrix(1 0 0 -1 283 157)"/><circle r="3" transform="matrix(1 0 0 -1 283 171)"/><circle r="3" transform="matrix(1 0 0 -1 283 185)"/><circle r="3" transform="matrix(1 0 0 -1 283 199)"/><circle r="3" transform="matrix(1 0 0 -1 297 3)"/><circle r="3" transform="matrix(1 0 0 -1 297 17)"/><circle r="3" transform="matrix(1 0 0 -1 297 31)"/><circle r="3" transform="matrix(1 0 0 -1 297 45)"/><circle r="3" transform="matrix(1 0 0 -1 297 59)"/><circle r="3" transform="matrix(1 0 0 -1 297 73)"/><circle r="3" transform="matrix(1 0 0 -1 297 87)"/><circle r="3" transform="matrix(1 0 0 -1 297 101)"/><circle r="3" transform="matrix(1 0 0 -1 297 115)"/><circle r="3" transform="matrix(1 0 0 -1 297 129)"/><circle r="3" transform="matrix(1 0 0 -1 297 143)"/><circle r="3" transform="matrix(1 0 0 -1 297 157)"/><circle r="3" transform="matrix(1 0 0 -1 297 171)"/><circle r="3" transform="matrix(1 0 0 -1 297 185)"/><circle r="3" transform="matrix(1 0 0 -1 297 199)"/><circle r="3" transform="matrix(1 0 0 -1 311 3)"/><circle r="3" transform="matrix(1 0 0 -1 311 17)"/><circle r="3" transform="matrix(1 0 0 -1 311 31)"/><circle r="3" transform="matrix(1 0 0 -1 311 45)"/><circle r="3" transform="matrix(1 0 0 -1 311 59)"/><circle r="3" transform="matrix(1 0 0 -1 311 73)"/><circle r="3" transform="matrix(1 0 0 -1 311 87)"/><circle r="3" transform="matrix(1 0 0 -1 311 101)"/><circle r="3" transform="matrix(1 0 0 -1 311 115)"/><circle r="3" transform="matrix(1 0 0 -1 311 129)"/><circle r="3" transform="matrix(1 0 0 -1 311 143)"/><circle r="3" transform="matrix(1 0 0 -1 311 157)"/><circle r="3" transform="matrix(1 0 0 -1 311 171)"/><circle r="3" transform="matrix(1 0 0 -1 311 185)"/><circle r="3" transform="matrix(1 0 0 -1 311 199)"/><circle r="3" transform="matrix(1 0 0 -1 325 3)"/><circle r="3" transform="matrix(1 0 0 -1 325 17)"/><circle r="3" transform="matrix(1 0 0 -1 325 31)"/><circle r="3" transform="matrix(1 0 0 -1 325 45)"/><circle r="3" transform="matrix(1 0 0 -1 325 59)"/><circle r="3" transform="matrix(1 0 0 -1 325 73)"/><circle r="3" transform="matrix(1 0 0 -1 325 87)"/><circle r="3" transform="matrix(1 0 0 -1 325 101)"/><circle r="3" transform="matrix(1 0 0 -1 325 115)"/><circle r="3" transform="matrix(1 0 0 -1 325 129)"/><circle r="3" transform="matrix(1 0 0 -1 325 143)"/><circle r="3" transform="matrix(1 0 0 -1 325 157)"/><circle r="3" transform="matrix(1 0 0 -1 325 171)"/><circle r="3" transform="matrix(1 0 0 -1 325 185)"/><circle r="3" transform="matrix(1 0 0 -1 325 199)"/><circle r="3" transform="matrix(1 0 0 -1 339 3)"/><circle r="3" transform="matrix(1 0 0 -1 339 17)"/><circle r="3" transform="matrix(1 0 0 -1 339 31)"/><circle r="3" transform="matrix(1 0 0 -1 339 45)"/><circle r="3" transform="matrix(1 0 0 -1 339 59)"/><circle r="3" transform="matrix(1 0 0 -1 339 73)"/><circle r="3" transform="matrix(1 0 0 -1 339 87)"/><circle r="3" transform="matrix(1 0 0 -1 339 101)"/><circle r="3" transform="matrix(1 0 0 -1 339 115)"/><circle r="3" transform="matrix(1 0 0 -1 339 129)"/><circle r="3" transform="matrix(1 0 0 -1 339 143)"/><circle r="3" transform="matrix(1 0 0 -1 339 157)"/><circle r="3" transform="matrix(1 0 0 -1 339 171)"/><circle r="3" transform="matrix(1 0 0 -1 339 185)"/><circle r="3" transform="matrix(1 0 0 -1 339 199)"/><circle r="3" transform="matrix(1 0 0 -1 353 3)"/><circle r="3" transform="matrix(1 0 0 -1 353 17)"/><circle r="3" transform="matrix(1 0 0 -1 353 31)"/><circle r="3" transform="matrix(1 0 0 -1 353 45)"/><circle r="3" transform="matrix(1 0 0 -1 353 59)"/><circle r="3" transform="matrix(1 0 0 -1 353 73)"/><circle r="3" transform="matrix(1 0 0 -1 353 87)"/><circle r="3" transform="matrix(1 0 0 -1 353 101)"/><circle r="3" transform="matrix(1 0 0 -1 353 115)"/><circle r="3" transform="matrix(1 0 0 -1 353 129)"/><circle r="3" transform="matrix(1 0 0 -1 353 143)"/><circle r="3" transform="matrix(1 0 0 -1 353 157)"/><circle r="3" transform="matrix(1 0 0 -1 353 171)"/><circle r="3" transform="matrix(1 0 0 -1 353 185)"/><circle r="3" transform="matrix(1 0 0 -1 353 199)"/><circle r="3" transform="matrix(1 0 0 -1 367 3)"/><circle r="3" transform="matrix(1 0 0 -1 367 17)"/><circle r="3" transform="matrix(1 0 0 -1 367 31)"/><circle r="3" transform="matrix(1 0 0 -1 367 45)"/><circle r="3" transform="matrix(1 0 0 -1 367 59)"/><circle r="3" transform="matrix(1 0 0 -1 367 73)"/><circle r="3" transform="matrix(1 0 0 -1 367 87)"/><circle r="3" transform="matrix(1 0 0 -1 367 101)"/><circle r="3" transform="matrix(1 0 0 -1 367 115)"/><circle r="3" transform="matrix(1 0 0 -1 367 129)"/><circle r="3" transform="matrix(1 0 0 -1 367 143)"/><circle r="3" transform="matrix(1 0 0 -1 367 157)"/><circle r="3" transform="matrix(1 0 0 -1 367 171)"/><circle r="3" transform="matrix(1 0 0 -1 367 185)"/><circle r="3" transform="matrix(1 0 0 -1 367 199)"/></g></svg></svg>